<?xml version="1.0" encoding="UTF-8"?>
<svg id="_Слой_2" data-name="Слой 2" xmlns="http://www.w3.org/2000/svg" viewBox="0 0 181.71 347.51">
  <defs>
    <style>
      .cls-1 {
        fill: #231f20;
        stroke: #b6b7b7;
        stroke-miterlimit: 10;
        stroke-width: 2px;
      }
    </style>
  </defs>
  <g id="Layer_1" data-name="Layer 1">
    <g>
      <path class="cls-1" d="M14.71,36.73h-6.44c1.88-7.26,3.33-14.73,4.36-22.42,5.02-4.23,10.09-7.4,15.2-9.48,5.11-2.09,10.27-3.13,15.47-3.13,6.23,0,12.07,1.47,17.52,4.4,5.45,2.94,9.56,7.06,12.34,12.39,2.78,5.33,4.17,11.2,4.17,17.61,0,5.81-1.06,11.32-3.18,16.52-2.66,6.78-7.11,14.04-13.34,21.78-6.23,7.75-19.3,22.36-39.21,43.84H59.63c5.5,0,9.15-.54,10.94-1.63,1.78-1.09,3.89-4.11,6.31-9.08,.24-.42,.6-1.09,1.09-2h6.9c-4.96,11.8-8.62,20.85-10.98,27.14-12.16-.67-23.11-1-32.86-1-8.71,0-22.06,.33-40.03,1v-5.35c18.39-19.18,31.5-33.51,39.3-42.98,7.81-9.47,13.37-18.17,16.7-26.09,2.3-5.32,3.45-11.01,3.45-17.06,0-7.99-1.94-14.07-5.81-18.24-3.87-4.17-8.89-6.26-15.07-6.26-5.57,0-10.53,1.79-14.88,5.35-3.33,2.66-6.66,7.56-9.98,14.7Z"/>
      <path class="cls-1" d="M168.91,1.25l2.09,7.17c-11.25,4.72-20.42,9.85-27.5,15.38-7.08,5.54-12.83,11.88-17.25,19.01-3.03,4.84-5.75,11.47-8.17,19.88,9.2-6.96,15.17-11.09,17.92-12.39,2.75-1.3,5.91-1.95,9.49-1.95,10.04,0,18.26,3.49,24.64,10.48,6.38,6.99,9.58,16.47,9.58,28.45s-3.69,22.99-11.07,33.04c-7.38,10.04-17.73,15.07-31.04,15.07-11.44,0-21.03-4.36-28.77-13.07-7.75-8.71-11.62-20.66-11.62-35.85,0-17.67,5.2-33.88,15.61-48.65,11.74-16.7,30.44-28.89,56.09-36.58Zm-4.81,94.8c0-4-.89-9.03-2.68-15.09-1.79-6.06-4.67-10.88-8.67-14.45-3.99-3.57-8.62-5.36-13.89-5.36-4.24,0-8.28,1.21-12.12,3.64-3.84,2.42-6.61,5.39-8.3,8.91-1.69,3.51-2.54,8.06-2.54,13.63,0,13.09,3.09,23.57,9.26,31.45,4.78,6.06,10.32,9.09,16.61,9.09,7.32,0,12.87-3.15,16.66-9.45,3.78-6.3,5.67-13.75,5.67-22.36Z"/>
      <path class="cls-1" d="M3.63,177.6c0-25.29,4.62-43.93,13.87-55.91,7.43-9.62,17.08-14.43,28.92-14.43,7.49,0,14.16,2.03,19.99,6.08,5.83,4.05,10.46,10.51,13.87,19.38,3.41,8.86,5.12,20.74,5.12,35.62s-1.54,27.74-4.62,39.48c-3.08,11.74-8.34,20.57-15.77,26.5-5.62,4.42-12.75,6.63-21.4,6.63-13.6,0-23.66-5.54-30.19-16.61-6.53-11.07-9.79-26.65-9.79-46.74Zm18.06-5.08c0,12.51,.56,22.5,1.67,30,1.12,7.49,2.84,13.59,5.16,18.31s4.74,7.99,7.25,9.83c2.51,1.84,5.51,2.76,9.01,2.76,4.23,0,7.94-1.37,11.14-4.12,3.2-2.75,5.96-7.96,8.29-15.63s3.49-19,3.49-33.98c0-13.95-1.06-27.19-3.17-39.69-.97-5.5-2.36-10.15-4.17-13.96-1.81-3.81-3.99-6.63-6.52-8.47-2.54-1.84-5.77-2.76-9.69-2.76s-6.9,.94-9.47,2.81c-2.57,1.87-4.79,4.68-6.66,8.43-1.39,2.72-2.6,6.86-3.62,12.41-1.81,9.55-2.72,20.91-2.72,34.08Z"/>
      <path class="cls-1" d="M109.55,241.68l-1.72-7.35c9.8-3.63,18.35-8.29,25.64-13.98,7.29-5.69,13.48-12.65,18.56-20.88,3.63-5.87,6.81-13.52,9.53-22.96-6.78,6.6-12.34,11.06-16.7,13.39-4.36,2.33-8.59,3.49-12.71,3.49-8.96,0-16.73-3.57-23.33-10.71-6.6-7.14-9.89-16.73-9.89-28.77,0-13.8,4.11-25.02,12.34-33.67,8.23-8.65,18.27-12.98,30.13-12.98s21.07,3.95,28.36,11.84c7.29,7.9,10.94,19.47,10.94,34.72,0,12.34-2.71,24.75-8.12,37.21-5.42,12.47-13.15,22.71-23.19,30.72-10.04,8.02-23.33,14.66-39.84,19.92Zm5.45-97.57c0,12.04,2.48,21.06,7.43,27.05,4.95,5.99,10.93,8.99,17.94,8.99,6.1,0,11.47-2.53,16.12-7.58,4.65-5.05,6.98-11.72,6.98-20.01,0-10.29-2.46-19.15-7.38-26.59-4.92-7.44-11.22-11.16-18.89-11.16-6.04,0-11.25,2.54-15.63,7.62-4.38,5.08-6.57,12.31-6.57,21.69Z"/>
      <path class="cls-1" d="M14.71,247.85h-6.44c1.88-7.26,3.33-14.73,4.36-22.42,5.02-4.23,10.09-7.4,15.2-9.48,5.11-2.09,10.27-3.13,15.47-3.13,6.23,0,12.07,1.47,17.52,4.4,5.45,2.94,9.56,7.06,12.34,12.39,2.78,5.33,4.17,11.2,4.17,17.61,0,5.81-1.06,11.32-3.18,16.52-2.66,6.78-7.11,14.04-13.34,21.78-6.23,7.75-19.3,22.36-39.21,43.84H59.63c5.5,0,9.15-.54,10.94-1.63,1.78-1.09,3.89-4.11,6.31-9.08,.24-.42,.6-1.09,1.09-2h6.9c-4.96,11.8-8.62,20.85-10.98,27.14-12.16-.67-23.11-1-32.86-1-8.71,0-22.06,.33-40.03,1v-5.35c18.39-19.18,31.5-33.51,39.3-42.98,7.81-9.47,13.37-18.17,16.7-26.09,2.3-5.32,3.45-11.01,3.45-17.06,0-7.99-1.94-14.07-5.81-18.24-3.87-4.17-8.89-6.26-15.07-6.26-5.57,0-10.53,1.79-14.88,5.35-3.33,2.66-6.66,7.56-9.98,14.7Z"/>
      <path class="cls-1" d="M114.09,242.05h-6.08c1.94-6.59,3.54-13.28,4.81-20.06,4.35-3.09,8.76-5.38,13.23-6.9,4.47-1.51,9-2.27,13.59-2.27,5.74,0,10.84,1.13,15.31,3.4,4.47,2.27,7.84,5.47,10.1,9.61,2.26,4.14,3.4,8.42,3.4,12.83,0,10.82-5.9,20.4-17.7,28.75,6.59,1.76,11.71,4.54,15.34,8.35,5.81,6.06,8.71,14.02,8.71,23.88,0,12.84-4.79,23.85-14.37,33.06-9.58,9.2-21.56,13.8-35.94,13.8-7.98,0-15.86-1.54-23.66-4.63,1.75-7.74,3.05-15.61,3.9-23.6h5.44c2.17,7.02,5.06,11.95,8.65,14.79,3.59,2.84,8.08,4.27,13.46,4.27,7.73,0,14.16-2.66,19.3-7.99,5.13-5.32,7.7-12.46,7.7-21.42s-2.72-15.99-8.17-21.28c-5.45-5.29-13.16-7.94-23.14-7.94-.91,0-1.94,.03-3.09,.09v-6.35c10.59-3.09,17.99-7.03,22.19-11.84,4.21-4.81,6.31-10.06,6.31-15.75,0-5.38-1.66-9.71-4.98-12.98-3.32-3.27-7.85-4.9-13.58-4.9-4.95,0-9.27,1.39-12.95,4.17-2.72,2.12-5.31,5.75-7.79,10.89Z"/>
    </g>
  </g>
</svg>