<svg xmlns="http://www.w3.org/2000/svg" viewBox="0 0 390.99 162.73"><defs><style>.cls-1{fill:#231f20;}</style></defs><title>forewer</title><g id="Слой_2" data-name="Слой 2"><g id="Layer_1" data-name="Layer 1"><path class="cls-1" d="M10.57,81.08q5.13,2.92,14-1.32a56.94,56.94,0,0,0,16-11.56,54.74,54.74,0,0,0,5.85-7.3c.7-1.08,1-1.79.79-2.15,0-.18.08-.27.26-.27q2.69,0-2.62,7A52,52,0,0,1,25.48,81q-11.64,5.48-17.06-.13a10.4,10.4,0,0,1-2-4.41,8,8,0,0,1,1-5.11c1-1.89,1.67-3.19,2.12-3.91s1.46-2.17,3.05-4.33l1.85-2.7-.26.27a2.37,2.37,0,0,0-.94.41c-.44.27-.85.51-1.2.68q-8,4.38-9.9,4.39A2.2,2.2,0,0,1,.5,65.59q-1.9-2.66,3.41-9.43Q9.49,48.33,12.7,47l.8-.28c.72,0,1.26.53,1.63,1.6q.54.8-3.72,4.86A50.6,50.6,0,0,0,7,57.61q-2.26,2.58-3.59,4.33c-.89,1.18-1.24,1.85-1.06,2,0,.18.76,0,2.28-.7s3.29-1.5,5.35-2.59,3.78-2.09,5.21-3a69.7,69.7,0,0,0,6.13-4.89c2.84-2.71,4.54-3.8,5.08-3.27a1.46,1.46,0,0,1,.29,2.15,33.21,33.21,0,0,1-4.8,5.14,66.71,66.71,0,0,0-8.78,9.75Q4.91,77.91,10.57,81.08Z"/><path class="cls-1" d="M102.06,69.56Q95.63,71.49,93.45,68q-1.64-3.21,3.14-9.69c1.06-1.44,1.5-2.17,1.32-2.16a11.28,11.28,0,0,1-4.29.57l-3.76.3-4,4.33q-5.58,6.5-5.31,7.57c.19.53,0,.8-.53.81l-.54-.53a3.14,3.14,0,0,1-.81-.54,2.79,2.79,0,0,1-.28-2.14L80.25,63q1.59-2.16,8.11-9.33T97,44.36q2.92-2.45,3.74-1.65,1.89,1.34-5.56,9.18L90.93,56l2.95-.3q5.1-.3,7.23-2.21,5.6-5.41,7.22-3.82,1.35,1.07-1.31,3.24a68.47,68.47,0,0,0-6.53,6.36,37.55,37.55,0,0,0-4.65,5.82c-.88,2.69-.28,4,1.78,4a15.5,15.5,0,0,0,6.83-1.94q7-2.73,20.58-12.53l5.07-3.53c.35-.18.62-.18.81,0s.17.45,0,.81q-.79,1.08-12.81,9.51Q108.76,68.17,102.06,69.56Z"/><path class="cls-1" d="M132.68,70.1c-1.26-.7-1.9-2-1.92-4a15.22,15.22,0,0,1,1-5.65l.53-1.34-1.61.82a14.81,14.81,0,0,1-2.4,1.63c-.36.18-1,.54-1.87,1.09s-1.61,1-2.14,1.36a2.73,2.73,0,0,1-3.36-.11c-1-.79-1.23-2-.7-3.62q1-2.69,5.72-6.49a25.39,25.39,0,0,1,8.42-4.91c2.14-.55,3.66-.12,4.57,1.31.36.53.63.71.81.53.89-.37,1.52-.19,1.89.52l-.27.27a8.76,8.76,0,0,1-.53.94,9,9,0,0,0-.53,1q-5.32,5.41-6.9,9.73-1.3,4.31.32,5.63,2.43,1.59,11-2,8.84-3.57,21.91-13.62,4.53-3.52,4.28-1.91-.25,1.08-7.33,6.24a129,129,0,0,1-12.42,8.16,61.32,61.32,0,0,1-6.95,3.28,28.37,28.37,0,0,1-6.57,1.8A7.78,7.78,0,0,1,132.68,70.1Zm-7.34-10.41c-.89,1.09-1.24,1.63-1.06,1.62a43.53,43.53,0,0,0,4.54-2.45q9.09-5.18,9.07-7.87-.55-1.6-4.29,1.11A36.59,36.59,0,0,0,125.34,59.69Z"/><path class="cls-1" d="M171.41,77.29q-5.07,3.81-9,3.71c-2.6-.07-4-1.53-4.2-4.4a3.36,3.36,0,0,0-1.1-2.41,2.08,2.08,0,0,1-.82-1.87q.24-4.56,15.1-24.84L177,39.91q1.59-2.16,5.32-6.49a181.48,181.48,0,0,1,21.29-22.74A77.6,77.6,0,0,1,217.76.35a2.6,2.6,0,0,1,3,.25c.72.53.73,1.25,0,2.15s-2.92,3.34-6.65,7.3Q198.9,25,190.89,31.2a60.32,60.32,0,0,0-10.12,9.49L172.8,51q-4,5.15-4,6.48l.28,1.34L171,57.42c4.09-3.25,7.66-4.72,10.71-4.38,3.4.33,4.85,2,4.34,5.06a19.38,19.38,0,0,1-3.16,7.28L181.8,67q8.05-.07,28.87-16.36c.7-.54,1.24-.46,1.61.25Q208,55.23,196.53,62.58a62.31,62.31,0,0,1-7.75,3.82,23.23,23.23,0,0,1-5.9,1.93l-2.41.29-1.86,2.17A55.92,55.92,0,0,1,171.41,77.29ZM161,79q1.63,2.13,8.3-3.3,6.13-5.15,7.19-7.31-.81,0-3.78-2a11.6,11.6,0,0,1-4.06-4.13l-2.13,1.9a21.42,21.42,0,0,0-4.78,6.21Q158.51,76.6,161,79Zm4.42-17.23c.18.18.63-.09,1.34-.82s1.06-1.17,1.06-1.35l-.28-.8a.33.33,0,0,0-.53,0,6,6,0,0,0-.8,1.35Zm9.44,4.48c1.44.71,2.29,1,2.56.92s.75-.68,1.46-1.76q5.05-6.21,4.48-9.7a1.58,1.58,0,0,0-1.35-.8q-1.07,0-5.88,2.2c-4.11,2.19-6.15,3.64-6.15,4.35C170.49,63.61,172.12,65.2,174.81,66.25Zm16.33-37.47,2.4-1.9q8.82-6.52,20.52-19.51l2.12-2.44q-.8,0-9.59,8.14a165.11,165.11,0,0,0-12.52,12.46Z"/><path class="cls-1" d="M204.62,66a5.44,5.44,0,0,1-1.94-6.16,23.67,23.67,0,0,1,5.44-8.1,27.1,27.1,0,0,1,8.41-6.25,7,7,0,0,1,4.29-.71c1.25.26,1.89.83,1.89,1.73,0,1.43-1,3.32-3.17,5.67-2.67,2.35-4.45,3.52-5.34,3.53-1.26,0-1.08-.53.52-1.61a22.3,22.3,0,0,0,5.07-4.48q2.11-2.57,1.31-3.37T216,48.44A29.44,29.44,0,0,0,207.09,57q-3.32,5-2,7.4c.73,1.61,3.42,2.12,8.07,1.55a49.16,49.16,0,0,0,15-4.7,90.53,90.53,0,0,0,14.16-8.71c.53-.36,1.24-.82,2.14-1.36l1.33-1.09a1.05,1.05,0,0,1,1.08.8L245.59,52a101.09,101.09,0,0,1-11.22,7.62l-5.88,3Q211.65,71,204.62,66Z"/><path class="cls-1" d="M238.44,64.91q-3.51-3.46.46-9.14a17.67,17.67,0,0,1,8.53-7.59q3.21-1.38,4.57,0c.72.53.86,1.43.42,2.68a6.68,6.68,0,0,1-2.52,3.24,17.16,17.16,0,0,1-7.76,3.29,2.27,2.27,0,0,0-1.87,1.36q-3.17,5.67,3,6.42,12.09-.1,30-12.88l3.21-2.17c.17-.18.44-.18.8,0a.53.53,0,0,1,.28.8A82.46,82.46,0,0,1,255.09,64Q242.51,68.9,238.44,64.91Zm3.95-9.17c1.26,0,3-.74,5.36-2.19A8.33,8.33,0,0,0,250.94,50c.17-.54,0-.81-.54-.8l-2.94,1.63C243.9,53.58,242.21,55.2,242.39,55.74Z"/><path class="cls-1" d="M311.09,49.51c.72-.18,1.17,0,1.35.53l-1.06,1.08-4.8,3.8-6.95,4.9L291.89,65a21.25,21.25,0,0,0-3.34,1.9c-1.7,1.09-3.07,1.91-4.14,2.46a21.3,21.3,0,0,1-7.63,2.88q-3.36.43-5-1c-1.08-1-1.36-2.45-.84-4.42.51-2.16,2.1-4.76,4.76-7.83a85.38,85.38,0,0,1,9.34-7.87c3-2,4.71-3.53,5.06-4.61.17-.72-.28-1-1.35-.79q-5.1.84-11.5,5.47-.27,0-1.47,1.08a10.48,10.48,0,0,1-2.27,1.63l-1.07.55c-.54-.53-.72-.89-.54-1.07a79.62,79.62,0,0,1,6.94-5.16,20.89,20.89,0,0,1,8-3.7c2.5-.46,4.12.1,4.85,1.71q1.09,2.14-6.64,8.38-12.29,9.78-12.24,14.34a2.17,2.17,0,0,0,1.1,2.14c.71.35,1.92.21,3.62-.44A42.9,42.9,0,0,0,282,68.7c1.25-.64,3-1.59,5.35-2.87l4.54-2.72q2.67-1.63,8-5.44L307.62,52A25.71,25.71,0,0,1,311.09,49.51Z"/><path class="cls-1" d="M230.68,162.73q-7.52.08-1.2-14.49l2.12-4.05q13.74-26.7,40.92-51.64,10.92-9.76,32.84-22.31A14.75,14.75,0,0,0,311,64.82L313.34,61l-1.07.82-.53.54a15.39,15.39,0,0,1-6.15,3.81c-2,.56-3.31.21-4-1q-2.19-4,5.67-12.27t13.49-8.3c1.43,0,2.24.25,2.42.78.54.36.9.44,1.08.26l3.72-4.6a57.65,57.65,0,0,1,5.85-7c1.6-1.62,2.66-2.44,3.2-2.44l.54.53c0,.54-.7,1.53-2.12,3q-6.12,7.57-20.7,29.18L312.85,67a198.47,198.47,0,0,0,28.87-15.83l2.67-1.9c.36-.36.72-.18,1.08.53a4.63,4.63,0,0,1-1.33,1.35l-1.07.82q-6.13,4.62-31.54,17.46l-3.19,4.32Q288.2,103.43,263.2,134,239.82,162.65,230.68,162.73Zm-.82-1.6q6.18.48,21.61-16.84,23.68-26.79,50.47-66.23l4.77-6.75a158.21,158.21,0,0,0-17.1,10.08q-9.35,6-21.07,17.64a175.56,175.56,0,0,0-18.88,21.64Q230.79,145,228.75,157.38,228,161.14,229.86,161.13Zm74.65-96.25c2,0,4.69-1.69,8.15-5a60.56,60.56,0,0,0,8.11-9.33c1.23-1.8,1.85-3,1.85-3.51a.71.71,0,0,0-.81-.8q-4.85,0-13.88,10.86Q301.28,64.91,304.51,64.88Z"/><path class="cls-1" d="M345.33,64.26a9.31,9.31,0,0,1,.75-5.64l.53-1.35c0-.18-.67.18-2,1.09s-2.85,1.86-4.54,2.86-2.81,1.41-3.34,1.24c-1.26-.17-2-.61-2.16-1.33a3.46,3.46,0,0,1,0-2.68q1.32-3.24,6.39-7T348.67,47c2.32-.55,3.94-.12,4.85,1.31l.54.53a1.45,1.45,0,0,1,1.21,0c.44.18.67.35.67.53a9.52,9.52,0,0,1-1.32,2.16q-5.6,6-6.9,9.73-1.58,5.12,2.06,5.75T359.3,65q7-2.75,23.51-15,6.93-5.7,6.65-6.77a.25.25,0,0,1,.27-.28q3.75,0-3.71,6.21a109.18,109.18,0,0,1-20.55,14.68,49.44,49.44,0,0,1-9.1,4.11,13.92,13.92,0,0,1-7.52.6A4.33,4.33,0,0,1,345.33,64.26Zm-5.43-6.4-1.06,1.62c.36,0,1.78-.82,4.28-2.45q9.61-5.18,9.06-7.87-.29-1.33-4.29,1.11A27.05,27.05,0,0,0,339.9,57.86Z"/></g></g></svg>