<?xml version="1.0" encoding="UTF-8"?>
<svg id="_Слой_2" data-name="Слой 2" xmlns="http://www.w3.org/2000/svg" viewBox="0 0 61.46 93.13">
  <defs>
    <style>
      .cls-1 {
        fill: #48494a;
      }
    </style>
  </defs>
  <g id="Layer_1" data-name="Layer 1">
    <g>
      <g>
        <path class="cls-1" d="M61.13,92.7c-15.11,.14-45.52,.37-60.63,.43-.24,0-.43-.19-.43-.43L0,52.67c0-.28,.22-.5,.5-.5l30.32,.05,30.32,.12c.18,0,.33,.14,.33,.32,0,0-.33,40.03-.33,40.03h0Zm0,0l-.33-40.03,.33,.33-30.32,.12-30.32,.05,.5-.5-.07,40.03-.43-.43c15.11,.06,45.52,.29,60.63,.43h0Z"/>
        <path class="cls-1" d="M45.94,74.5c.06,12.35-15.04,18.73-23.9,10.08-5.59-5.3-5.6-14.85,0-20.15,8.86-8.66,23.96-2.27,23.9,10.08h0Zm0,0c-.06-12.14-14.84-18.14-23.29-9.47-5.11,5.01-5.12,13.93,0,18.94,8.45,8.67,23.24,2.67,23.3-9.47h0Z"/>
        <path class="cls-1" d="M56.89,60.67c-3.2,.2-6.57,.4-9.85,.46-.25,0-.45-.19-.46-.44-.04-1.44-.03-2.87-.04-4.31,0-.27,.22-.5,.49-.5,3.3,0,6.59,.07,9.89,.22,.15,0,.26,.13,.26,.27-.06,1.5-.19,2.96-.28,4.3h0Zm0,0c-.09-1.53-.21-2.93-.28-4.29l.28,.28c-3.28,.15-6.57,.22-9.85,.22l.5-.5c-.02,1.43,0,2.86-.04,4.29l-.46-.46c3.29,.06,6.49,.27,9.85,.46h0Z"/>
        <path class="cls-1" d="M49.69,80.04c-.01,2.02-3.06,2.16-3.14,0,.08-2.17,3.13-2.02,3.14,0h0Zm0,0c-.07-1.52-2.15-1.38-2.15,0,0,1.38,2.08,1.52,2.15,0h0Z"/>
        <path class="cls-1" d="M61.13,63.73c-6.78,.68-13.57,.69-20.35,0,6.78-.69,13.57-.68,20.35,0h0Z"/>
        <path class="cls-1" d="M42.6,83.48c6.17-.68,12.35-.69,18.53,0-6.17,.69-12.35,.68-18.53,0h0Z"/>
        <path class="cls-1" d="M.49,83.48c7.04-.68,14.08-.69,21.12,0-7.04,.69-14.08,.68-21.12,0H.49Z"/>
        <path class="cls-1" d="M23.45,63.73c-7.65,.68-15.31,.69-22.96,0,7.65-.69,15.31-.68,22.96,0h0Z"/>
        <path class="cls-1" d="M42.88,74.5c.09,9.62-11.77,14.66-18.68,7.91-4.4-4.12-4.41-11.71,0-15.83,6.9-6.75,18.78-1.7,18.68,7.92h0Zm0,0c-.02-9.41-11.58-14.07-18.08-7.31-3.93,3.88-3.93,10.75,0,14.62,6.49,6.76,18.06,2.1,18.08-7.31h0Z"/>
        <path class="cls-1" d="M15.28,52.67c-2.27,.18-4.82,.4-7.39,.45-.24,0-.44-.18-.45-.42-.04-1.27-.04-2.55-.05-3.82,0-.27,.22-.5,.49-.5,2.48,0,4.96,.06,7.43,.2,.16,0,.28,.14,.27,.3-.07,1.34-.21,2.63-.3,3.8h0Zm0,0c-.09-1.37-.24-2.61-.3-3.8l.3,.3c-2.46,.14-4.93,.19-7.39,.2l.5-.5c-.01,1.27-.01,2.53-.05,3.8l-.45-.45c2.35,.05,4.74,.26,7.39,.45,0,0-2.65-.18,0,0Z"/>
        <path class="cls-1" d="M30.81,65.8c-2.64,1.85-4.53,4.11-6.07,6.89,.15-3.27,2.82-6.37,6.07-6.89h0Z"/>
      </g>
      <g>
        <path class="cls-1" d="M34.68,52.79c-.68-3.97-.69-7.96,0-11.93,.69,3.97,.68,7.96,0,11.93h0Z"/>
        <path class="cls-1" d="M28.96,41.1c.68,3.89,.69,7.8,0,11.69-.69-3.89-.68-7.8,0-11.69h0Z"/>
        <g>
          <path class="cls-1" d="M52.01,21.09c.01,17.77-21.54,26.82-34.26,14.37-7.95-7.63-7.96-21.11,0-28.74,12.72-12.46,34.28-3.4,34.26,14.37h0Zm0,0c-.11-17.56-21.34-26.22-33.66-13.76-7.46,7.26-7.47,20.26,0,27.53,12.32,12.46,33.55,3.79,33.66-13.77h0Z"/>
          <path class="cls-1" d="M34.68,21.09c-.08,3.66-5.49,3.8-5.63,0,.14-3.8,5.56-3.66,5.63,0h0Zm0,0c-.11-3.13-4.59-3-4.63,0,.04,3,4.53,3.14,4.63,0h0Z"/>
          <path class="cls-1" d="M32.11,1.2c.68,5.77,.69,11.56,0,17.33-.69-5.77-.68-11.56,0-17.33h0Z"/>
          <path class="cls-1" d="M22.17,3.86c3.48,4.66,6.38,9.66,8.66,15.01-3.48-4.65-6.37-9.67-8.66-15.01h0Z"/>
          <path class="cls-1" d="M14.89,11.14c5.34,2.29,10.35,5.18,15.01,8.66-5.34-2.29-10.35-5.18-15.01-8.66h0Z"/>
          <path class="cls-1" d="M12.22,21.09c5.77-.68,11.56-.69,17.33,0-5.77,.69-11.56,.68-17.33,0h0Z"/>
          <path class="cls-1" d="M14.89,31.04c4.66-3.48,9.66-6.38,15.01-8.66-4.65,3.48-9.66,6.37-15.01,8.66h0Z"/>
          <path class="cls-1" d="M22.17,38.32c2.29-5.34,5.18-10.35,8.66-15.01-2.29,5.34-5.18,10.35-8.66,15.01h0Z"/>
          <path class="cls-1" d="M32.11,40.98c-.68-5.77-.69-11.56,0-17.33,.69,5.77,.68,11.56,0,17.33h0Z"/>
          <path class="cls-1" d="M42.06,38.32c-3.48-4.66-6.38-9.66-8.66-15.01,3.48,4.65,6.37,9.66,8.66,15.01h0Z"/>
          <path class="cls-1" d="M49.34,31.04c-5.34-2.29-10.35-5.18-15.01-8.66,5.34,2.29,10.35,5.18,15.01,8.66h0Z"/>
          <path class="cls-1" d="M52.01,21.09c-5.77,.68-11.56,.69-17.33,0,5.77-.69,11.56-.68,17.33,0h0Z"/>
          <path class="cls-1" d="M49.34,11.14c-4.66,3.48-9.66,6.38-15.01,8.66,4.65-3.48,9.66-6.37,15.01-8.66h0Z"/>
          <path class="cls-1" d="M42.06,3.86c-2.29,5.34-5.18,10.35-8.66,15.01,2.29-5.34,5.18-10.35,8.66-15.01h0Z"/>
          <path class="cls-1" d="M11.27,21.09c0-18.62,22.56-28.09,35.89-15.04,8.33,7.99,8.33,22.1,0,30.09-13.33,13.05-35.91,3.57-35.89-15.05h0Zm0,0c.11,18.41,22.37,27.5,35.29,14.44,7.83-7.62,7.84-21.26,0-28.88C33.64-6.41,11.38,2.68,11.27,21.09h0Z"/>
        </g>
      </g>
    </g>
  </g>
</svg>