<?xml version="1.0" encoding="UTF-8"?>
<svg id="_Слой_2" data-name="Слой 2" xmlns="http://www.w3.org/2000/svg" viewBox="0 0 425.79 91">
  <defs>
    <style>
      .cls-1 {
        fill: #4a494a;
      }
    </style>
  </defs>
  <g id="Layer_1" data-name="Layer 1">
    <g>
      <path class="cls-1" d="M11.94,73.92c-2.86,.02-5.14-.25-6.83-.83C1.89,71.86,.19,69.9,0,67.2c-.01-1.35,.31-2.74,.98-4.18,1.33-2.62,3.73-4.98,7.21-7.08,3.48-2.09,7.36-3.5,11.65-4.21,1.18-.18,1.81-.31,1.89-.4l3.12-4.2c12.83-16.88,22.88-28.84,30.15-35.9,2.17-2.21,3.43-3.27,3.77-3.19,.59,0,.89,.29,.89,.88,0,.08-.42,.64-1.25,1.65l-8.14,9.04-.5,.38,.5-.13,5.41-2.57c6.79-3.85,10.51-7.08,11.17-9.7,.08-.34,0-.63-.26-.88-.17-.25-.76-.37-1.77-.36-2.45-.15-5.6,.72-9.46,2.61-2.85,1.29-5.03,2.7-6.54,4.23l-1.13,.89c-.17-.25,.18-.82,1.06-1.71,.88-.89,1.98-1.76,3.33-2.62,3.27-2.05,6.54-3.42,9.82-4.13,1.93-.44,3.41-.37,4.42,.21,.93,.41,1.4,1.04,1.41,1.88-.15,2.61-3.41,5.76-9.78,9.43-2.1,1.2-4.7,2.53-7.8,3.99l-1.13,.39,.63,.12c5.15,.97,8.28,3.26,9.41,6.87,.26,.75,.35,1.98,.28,3.66,.01,1.69-.18,3.16-.59,4.43-.33,1.1-.78,2.45-1.36,4.05-1.24,2.96-2.77,5.84-4.6,8.63l-1.12,1.78c.17,.08,.65,.1,1.45,.05,.8-.05,1.83-.18,3.09-.41,1.26-.22,2.27-.42,3.03-.59,2.44-.61,4.54-1.64,6.29-3.09,.33-.26,.63-.38,.88-.39,.42,0,.46,.17,.13,.5-2.26,1.71-4.06,2.77-5.41,3.21-2.77,.87-5.67,1.44-8.71,1.72-1.09,.09-1.81,.4-2.14,.9-.08,.09-.21,.25-.38,.51-7.92,10.18-17.89,16.62-29.91,19.34-3.11,.7-5.8,1.06-8.08,1.08Zm-7.35-1.83c3.8,1.57,9.03,1.48,15.67-.26,8.91-2.35,16.79-6.88,23.64-13.6,3.51-3.57,5.18-5.48,5.01-5.73l-2.4,.15c-2.19,.02-4.42-.04-6.7-.2-10.12-.67-15.51-.75-16.18-.24-.08,.09-.48,.59-1.19,1.53-.71,.93-1.56,2.08-2.56,3.43-1,1.36-1.83,2.5-2.5,3.43-3.17,4.41-5.12,7.21-5.87,8.39-.33,.76-.71,.93-1.13,.52-.51-.67,.73-3.25,3.73-7.74l4.5-6.23,2-2.92-1.64,.27c-3.03,.62-5.95,1.69-8.75,3.23-2.81,1.54-5.01,3.25-6.59,5.11-3,3.65-3.61,6.6-1.82,8.86,.6,.92,1.53,1.59,2.8,2Zm43.55-20.59c.93-.09,1.52-.22,1.77-.39,.25-.17,.79-.89,1.62-2.16,5.32-8.3,7.62-14.85,6.91-19.65-.62-3.62-3.25-5.83-7.89-6.63-.68-.33-1.33-.41-1.96-.24-.63,.17-1.05,.37-1.26,.58-.21,.21-.86,.96-1.94,2.23l-9.51,11.58c-7.59,9.5-11.38,14.29-11.38,14.38l2.4-.15c2.86-.02,5.52,.04,7.96,.19,6.74,.28,11.17,.37,13.27,.27Z"/>
      <path class="cls-1" d="M67.01,55.89c-.59-.33-.89-.96-.9-1.89,0-.93,.15-1.81,.48-2.66l.25-.63-.75,.39c-.42,.34-.8,.6-1.13,.77-.17,.09-.46,.26-.88,.51-.42,.26-.75,.47-1,.64-.59,.34-1.12,.33-1.58-.05-.46-.38-.58-.94-.33-1.7,.33-.84,1.23-1.86,2.69-3.06,1.46-1.19,2.78-1.96,3.96-2.31,1.01-.26,1.73-.06,2.15,.61,.17,.25,.3,.33,.38,.25,.42-.17,.71-.09,.89,.25l-.12,.13c-.08,.17-.17,.32-.25,.44-.08,.13-.17,.28-.25,.44-1.67,1.7-2.75,3.23-3.25,4.58-.41,1.35-.36,2.24,.15,2.65,.76,.5,2.48,.19,5.17-.93,2.77-1.12,6.21-3.25,10.31-6.41,1.42-1.11,2.09-1.41,2.01-.9-.08,.34-1.23,1.32-3.45,2.94-2.22,1.62-4.17,2.9-5.84,3.84-1.09,.6-2.18,1.11-3.27,1.54-1.09,.43-2.12,.71-3.09,.85-.97,.13-1.75,.04-2.34-.3Zm-3.45-4.9c-.42,.51-.58,.76-.5,.76,.08,0,.79-.39,2.14-1.16,2.85-1.62,4.27-2.86,4.26-3.7-.17-.5-.85-.33-2.02,.52-1.42,.94-2.72,2.13-3.89,3.57Z"/>
      <path class="cls-1" d="M89.64,56.83c-.42-.17-.72-.37-.89-.62-.17-.25-.26-.76-.27-1.51,.15-1.69,1.61-4.14,4.36-7.37l1-1.15-.75,.64c-1.34,1.02-3.35,2.39-6.03,4.1-2.6,1.46-4.2,1.85-4.79,1.18-.68-.83-.52-1.97,.48-3.42,1.75-2.37,2.76-2.97,3.02-1.79,.09,.34-.25,.89-1,1.65-.33,.34-.67,.76-1,1.27-.33,.51-.58,.93-.75,1.27-.17,.34-.21,.55-.12,.63,.34,.33,1.72-.22,4.16-1.68,3.6-2.05,6.7-4.35,9.29-6.9,.92-.77,1.42-1.15,1.51-1.15,1.01-.09,1.52,.11,1.52,.62,0,.34-1.04,1.48-3.13,3.44-3.01,3.14-4.97,5.48-5.88,7-1.16,1.95-1.32,3-.48,3.16,.93,.16,2.12-.14,3.59-.92,1.47-.77,4-2.39,7.6-4.87,.25-.17,.65-.45,1.19-.83,.54-.38,1.02-.72,1.45-1.02,.42-.3,.79-.58,1.13-.83l1.63-1.15c.17-.08,.31-.07,.44,.06,.13,.12,.11,.27-.06,.44l-.63,.51-1.88,1.41c-6.95,4.86-11.27,7.47-12.95,7.82-1.01,.18-1.6,.18-1.77,.02Z"/>
      <path class="cls-1" d="M103.13,53.56c-1.1-1.09-1.03-2.52,.22-4.3,.91-1.61,2.25-2.8,4.01-3.57,1.01-.43,1.72-.43,2.15-.02,.34,.25,.4,.67,.2,1.26-.21,.59-.6,1.1-1.19,1.53-1.17,.85-2.39,1.37-3.65,1.55-.34,0-.63,.22-.88,.64-1,1.78-.53,2.79,1.42,3.02,3.79-.03,8.49-2.05,14.1-6.06l1.51-1.02c.08-.08,.21-.08,.38,0,.17,.08,.21,.21,.13,.38-3.1,2.55-6.62,4.61-10.56,6.16-3.95,1.55-6.56,1.7-7.83,.45Zm1.86-4.31c.59,0,1.43-.35,2.52-1.03,.75-.51,1.25-1.06,1.5-1.66,.08-.25,0-.38-.26-.38l-1.38,.77c-1.68,1.28-2.47,2.04-2.38,2.3Z"/>
      <path class="cls-1" d="M94.6,90.91c-.08,.17-.29,.08-.63-.25l-.38-.12,1.12-1.78,11.96-19.94c10.05-16.26,17.46-27.4,22.21-33.43,.58-.68,1-.98,1.26-.9,.25,0,.38,.04,.38,.12,0,.42-1.49,2.84-4.49,7.24l-3,4.32,.26,.38,.26,.5,2.26-1.28c2.18-1.11,3.78-1.76,4.79-1.94,.84,0,1.35,.24,1.52,.75,.34,.84-.4,2.49-2.23,4.95l-1.63,1.91c3.21,1.24,7.12,.53,11.73-2.12,1.42-.85,2.89-1.83,4.4-2.94,.17-.17,.31-.21,.44-.13,.13,.08,.15,.21,.07,.38l-.63,.64c-1.84,1.45-3.39,2.47-4.65,3.07-4.36,2.31-8.4,2.9-12.12,1.75l-1.13,1.27c-3.01,2.89-5.07,3.37-6.18,1.44-.43-.84-.44-1.93-.03-3.29l.12-.63c-.17,.25-1.17,1.7-3,4.32-4.25,5.93-9.03,13.43-14.34,22.49-4.98,8.21-7.77,12.62-8.35,13.21Zm26.74-35.74c.67,.16,1.47-.14,2.39-.91,.25-.17,.61-.47,1.07-.89,.46-.42,.86-.81,1.19-1.15l.37-.64c-1.1-.58-2.08-1.5-2.93-2.75-.09-.25-.34-.21-.76,.13-.42,.34-.84,.98-1.25,1.91-.91,2.62-.93,4.05-.09,4.3Zm5.65-4.22c.08,0,.31-.21,.69-.64,.38-.42,.81-.96,1.31-1.59,.5-.64,.88-1.16,1.12-1.59,.5-.68,.83-1.27,1-1.78,.16-.42,.2-.67,.12-.76-.25-.25-1.64,.23-4.16,1.43-2.01,1.11-3.02,1.88-3.01,2.3,0,.25,.36,.76,1.09,1.51,.72,.75,1.34,1.13,1.84,1.12Z"/>
      <path class="cls-1" d="M144.36,57c-.01-1.18,.9-3.04,2.73-5.58l.87-1.27-.12,.13c-.08,0-.23,.07-.44,.19-.21,.13-.4,.24-.57,.32-2.52,1.37-4.07,2.06-4.66,2.06-.34,0-.59-.08-.76-.25-.6-.84-.06-2.32,1.6-4.44,1.75-2.46,3.13-3.9,4.13-4.33l.38-.13c.34,0,.59,.25,.76,.75,.17,.25-.41,1.02-1.75,2.29-.67,.6-1.36,1.3-2.07,2.1-.71,.81-1.27,1.49-1.69,2.04-.42,.55-.58,.87-.5,.95,0,.08,.36-.02,1.07-.32,.71-.3,1.55-.71,2.52-1.22,.96-.51,1.78-.98,2.45-1.41,.75-.51,1.72-1.28,2.89-2.3,1.34-1.28,2.13-1.79,2.39-1.54,.26,.34,.3,.67,.14,1.01-.17,.34-.92,1.14-2.25,2.42-3.59,3.65-5.68,6.24-6.25,7.76-.74,1.95,.65,2.14,4.18,.6,4.45-1.97,10.06-5.52,16.84-10.63,.33-.17,.63-.13,.89,.12-2.43,2.04-5.4,4.13-8.92,6.27-4.27,2.82-7.5,4.61-9.69,5.39-2.77,1.12-4.16,.79-4.18-.97Z"/>
      <path class="cls-1" d="M173.3,57.51c-2.69,.45-4.17-.09-4.44-1.6-.18-.84,.15-2.02,.98-3.55,1-1.69,1.79-2.84,2.37-3.43l2.13-2.29,.75-.89h-.25c-.5,.26-.8,.43-.88,.52-4.44,3.75-7.45,5.42-9.06,5.01-1.18-.41-1.36-1.33-.53-2.78,.5-.68,.87-1.15,1.12-1.4l.38-.38c.83-.85,1.34-1.02,1.51-.52,.08,.17-.29,.8-1.12,1.91-1.09,1.27-1.5,2.03-1.24,2.29,.17,.17,.97-.13,2.39-.91,1.68-.77,3.27-1.8,4.78-3.07l1-.77-.51-.63c-1.27-1.17-.87-2.81,1.22-4.94,1-1.02,1.94-1.66,2.83-1.92,.88-.26,1.45-.05,1.71,.62,.26,.59,.09,1.43-.48,2.53-.25,.51-.92,1.52-2,3.05l-.38,.38,.38-.13c.17-.17,.48-.26,.95-.26,.46,0,.78,.08,.95,.25,.17,.25-.46,1.06-1.88,2.42l-2.63,2.8c-2.59,2.63-3.84,4.54-3.74,5.72,.43,1.09,1.82,1.46,4.18,1.1,2.36-.36,4.71-1.13,7.06-2.33,3.69-1.8,6.37-3.51,8.04-5.12,.92-.77,1.38-1.7,1.37-2.79,0-.08,.04-.13,.13-.13,.42,0,.63,.29,.64,.88,.01,1.26-1.79,3.09-5.39,5.48-1.51,1.02-3.54,2.05-6.1,3.08-2.56,1.03-4.64,1.64-6.24,1.82Zm-.11-12.64c.42,.17,1.05-.26,1.88-1.28,1.83-2.04,2.75-3.52,2.74-4.45,0-.17-.3-.17-.88,0-1.26,.69-2.34,1.71-3.26,3.06-.92,1.36-1.08,2.24-.48,2.66Z"/>
      <path class="cls-1" d="M212.5,59.32c1.61,.91,3.8,.71,6.57-.62,2.77-1.33,5.28-3.14,7.54-5.44,.83-.85,1.75-1.99,2.75-3.44,.33-.51,.46-.84,.37-1.01,0-.08,.04-.13,.12-.13,.84,0,.43,1.09-1.24,3.3-2.42,3.14-5.45,5.57-9.1,7.28-3.65,1.72-6.33,1.7-8.02-.06-.51-.67-.83-1.36-.97-2.08-.13-.71,.03-1.52,.49-2.41,.45-.89,.79-1.5,1-1.84,.21-.34,.69-1.02,1.43-2.03l.87-1.27-.12,.13c-.08,0-.23,.07-.44,.19-.21,.13-.4,.24-.57,.32-2.52,1.37-4.07,2.06-4.66,2.06-.34,0-.59-.08-.76-.25-.6-.84-.06-2.32,1.6-4.44,1.75-2.46,3.13-3.9,4.13-4.33l.38-.13c.34,0,.59,.25,.76,.75,.17,.25-.41,1.02-1.75,2.29-.67,.6-1.36,1.3-2.07,2.1-.71,.81-1.27,1.49-1.69,2.04-.42,.55-.58,.87-.5,.95,0,.08,.36-.02,1.07-.33,.71-.3,1.55-.71,2.52-1.22,.96-.51,1.78-.98,2.45-1.41,.75-.51,1.72-1.28,2.89-2.3,1.34-1.27,2.13-1.79,2.39-1.54,.34,.25,.38,.59,.14,1.01-.25,.42-1,1.23-2.25,2.42-1.51,1.36-2.88,2.89-4.13,4.59-2.58,3.56-2.98,5.84-1.2,6.83Z"/>
      <path class="cls-1" d="M317.27,45.54c.84-.6,1.3-.73,1.39-.39l-.12,.38c-3.18,2.64-10.69,5.78-22.54,9.42l-2.52,.78c-4.52,3.32-8.53,5.61-12.01,6.86-3.49,1.25-7.5,1.81-12.06,1.68-6.32-.11-10.15-.08-11.5,.1-.59,.18-1.3,.64-2.14,1.41-2.76,2.05-4.44,3.11-5.03,3.2-.25,.09-.55,.05-.89-.12-.93-.58-.52-1.51,1.24-2.79,.92-.68,2.01-1.24,3.27-1.67,1.34-.52,2.43-1.16,3.27-1.92,4.43-3.74,8.23-7.53,11.4-11.35l.75-.76c-8.24-7.77-10.04-16.64-5.41-26.62,2.57-5.33,6.71-10.27,12.45-14.83,5.73-4.55,11.37-7.36,16.92-8.42,6.64-1.4,12.01,.17,16.09,4.73,4.08,4.56,5.4,10.38,3.94,17.47-2.33,12.91-8.6,23.5-18.81,31.76,.25,0,1.3-.31,3.15-.91,3.19-.87,6.81-2.12,10.84-3.76,4.03-1.63,6.8-3.05,8.3-4.24Zm-63.9,20.51l-.63,.13-.75,.51-1.25,1.02c0,.08,.21,0,.63-.26,.42-.26,.84-.53,1.26-.83,.42-.3,.67-.49,.75-.58Zm31.42-5.83c.33-.17,.69-.36,1.07-.58,.38-.21,.77-.45,1.19-.71,.42-.26,.84-.51,1.26-.77,.42-.26,.82-.51,1.19-.77s.71-.49,1-.7c.29-.21,.48-.4,.56-.57l.25-.13-1.64,.14c-6.14,.98-12.22-.48-18.24-4.39-.09-.17-.8,.43-2.13,1.79-2.34,2.63-4.93,5.14-7.77,7.52l-2.51,2.04c-.08,.08,0,.17,.26,.25,.51,.08,1.77,.11,3.79,.09,8.09-.07,13.35-.41,15.79-1.02,1.77-.44,3.74-1.17,5.92-2.2Zm7.92-5.25c.84-.34,2.89-2.17,6.15-5.49,6.6-6.71,11.16-14.92,13.69-24.63,2.03-8.69,.8-15.25-3.71-19.68-3.57-3.76-8.89-4.89-15.95-3.4-3.78,1.04-7.73,2.97-11.83,5.79-5.87,3.93-10.38,8.35-13.54,13.26-3.16,4.92-4.57,9.92-4.23,15.01,.34,5.1,2.67,9.65,7,13.65,.08,.08,1.61-1.93,4.56-6.04,2.96-4.11,4.68-6.59,5.18-7.44,6.58-9.24,11.16-15.18,13.75-17.81,1.83-2.04,3.59-3.63,5.27-4.79,1.67-1.15,2.81-1.56,3.4-1.23,.34,.25,.3,.5-.12,.76-.08,0-.55,.26-1.38,.77-3.43,2.56-9.44,9.94-18.01,22.14-2.5,3.48-5.79,7.89-9.87,13.23l-1.38,1.78c4.83,3.67,9.78,5.31,14.83,4.93,2.78-.19,4.84-.46,6.19-.81Z"/>
      <path class="cls-1" d="M319.61,53.73c-.59-.33-.89-.96-.9-1.89,0-.93,.15-1.81,.48-2.66l.25-.63-.76,.39c-.42,.34-.8,.6-1.13,.77-.17,.09-.46,.26-.88,.51-.42,.26-.75,.47-1,.64-.59,.34-1.12,.33-1.58-.05-.46-.38-.58-.94-.33-1.7,.33-.84,1.23-1.86,2.69-3.06,1.46-1.19,2.78-1.96,3.96-2.31,1.01-.26,1.73-.06,2.15,.61,.17,.25,.3,.34,.38,.25,.42-.17,.71-.09,.89,.25l-.12,.13c-.08,.17-.17,.32-.25,.44-.08,.13-.17,.28-.25,.45-1.67,1.7-2.75,3.23-3.25,4.58-.41,1.35-.36,2.24,.15,2.65,.76,.5,2.48,.19,5.17-.93,2.77-1.12,6.21-3.25,10.31-6.41,1.42-1.11,2.09-1.41,2.01-.9-.08,.34-1.23,1.32-3.45,2.94-2.22,1.62-4.17,2.9-5.84,3.84-1.09,.6-2.18,1.11-3.27,1.54-1.09,.43-2.12,.71-3.09,.85-.97,.13-1.75,.04-2.34-.3Zm-3.45-4.9c-.42,.51-.58,.76-.5,.76,.08,0,.79-.39,2.14-1.16,2.85-1.62,4.27-2.86,4.27-3.7-.17-.5-.85-.33-2.02,.52-1.43,.94-2.72,2.13-3.89,3.57Z"/>
      <path class="cls-1" d="M342.61,53.16c-2.02,.61-3.37,.37-4.05-.72-.51-1.01-.02-2.53,1.48-4.56,.5-.68,.71-1.02,.62-1.02-.34,.17-1.01,.26-2.02,.27l-1.77,.14-1.88,2.04c-1.75,2.04-2.58,3.23-2.5,3.56,.09,.25,0,.38-.25,.38l-.25-.25c-.17-.08-.3-.17-.38-.25-.17-.25-.21-.59-.13-1.01l.87-1.65c.5-.68,1.77-2.14,3.82-4.39,2.04-2.25,3.4-3.71,4.07-4.39,.92-.77,1.51-1.03,1.76-.77,.59,.42-.28,1.86-2.62,4.32l-2.01,1.91,1.39-.14c1.6-.1,2.73-.44,3.4-1.04,1.75-1.7,2.89-2.3,3.4-1.8,.42,.33,.22,.84-.62,1.52-.92,.77-1.94,1.77-3.07,3-1.13,1.23-1.86,2.14-2.19,2.74-.41,1.27-.13,1.9,.84,1.89,.97,0,2.04-.31,3.21-.91,2.18-.86,5.41-2.83,9.68-5.9l2.39-1.66c.17-.08,.29-.09,.38,0,.08,.08,.08,.21,0,.38-.25,.34-2.26,1.83-6.03,4.48-2.93,2.13-5.45,3.42-7.55,3.86Z"/>
      <path class="cls-1" d="M355.52,55.2c-.01-1.18,.9-3.04,2.73-5.58l.87-1.27-.12,.13c-.08,0-.23,.07-.44,.19-.21,.13-.4,.24-.57,.32-2.52,1.37-4.07,2.06-4.66,2.06-.34,0-.59-.08-.76-.25-.6-.84-.06-2.32,1.6-4.44,1.75-2.46,3.13-3.9,4.13-4.33l.38-.13c.34,0,.59,.25,.76,.75,.17,.25-.41,1.02-1.75,2.29-.67,.6-1.36,1.3-2.07,2.1-.71,.81-1.27,1.49-1.69,2.04-.42,.55-.58,.87-.5,.95,0,.08,.36-.02,1.07-.32,.71-.3,1.55-.71,2.52-1.22,.96-.51,1.78-.98,2.45-1.41,.75-.51,1.72-1.28,2.89-2.3,1.34-1.28,2.13-1.79,2.39-1.54,.26,.33,.3,.67,.14,1.01-.17,.34-.92,1.15-2.25,2.42-3.59,3.66-5.68,6.24-6.25,7.76-.74,1.95,.65,2.14,4.17,.6,4.45-1.97,10.06-5.52,16.84-10.63,.33-.17,.63-.13,.89,.12-2.43,2.04-5.4,4.13-8.92,6.27-4.27,2.82-7.5,4.61-9.69,5.39-2.77,1.12-4.16,.79-4.18-.98Z"/>
      <path class="cls-1" d="M377.38,55.01c-.01-1.18,.9-3.04,2.73-5.58l.87-1.27-.12,.13c-.08,0-.23,.07-.44,.19-.21,.13-.4,.24-.57,.32-2.52,1.37-4.07,2.06-4.66,2.06-.34,0-.59-.08-.76-.25-.6-.84-.06-2.32,1.6-4.44,1.75-2.46,3.13-3.9,4.13-4.33l.38-.13c.34,0,.59,.25,.76,.75,.17,.25-.41,1.02-1.75,2.29-.67,.6-1.36,1.3-2.07,2.1-.71,.81-1.27,1.49-1.69,2.04-.42,.55-.58,.87-.5,.95,0,.08,.36-.02,1.07-.32,.71-.3,1.55-.71,2.52-1.22,.96-.51,1.78-.98,2.45-1.41,.75-.51,1.72-1.28,2.89-2.3,1.34-1.28,2.13-1.79,2.39-1.54,.26,.33,.3,.67,.14,1.01-.17,.34-.92,1.15-2.25,2.42-3.59,3.66-5.68,6.24-6.25,7.76-.74,1.95,.65,2.14,4.18,.6,4.45-1.97,10.06-5.52,16.84-10.63,.33-.17,.63-.13,.89,.12-2.43,2.04-5.4,4.13-8.92,6.27-4.27,2.82-7.5,4.61-9.68,5.39-2.77,1.12-4.16,.79-4.18-.98Z"/>
      <path class="cls-1" d="M407.96,55.13c-1.85,.27-3.18-.04-3.99-.91-.81-.88-.96-1.99-.47-3.34,.74-1.94,2.11-4.02,4.12-6.23l1-1.14-.75,.64c-1.34,1.02-3.35,2.39-6.03,4.1-2.6,1.46-4.2,1.85-4.79,1.18-.68-.83-.52-1.97,.48-3.42,1.75-2.37,2.76-2.97,3.02-1.79,.09,.34-.25,.89-1,1.65-.33,.34-.67,.76-1,1.27-.33,.51-.58,.93-.75,1.27-.17,.34-.21,.55-.12,.63,.34,.33,1.72-.22,4.16-1.68,3.6-2.05,6.7-4.35,9.29-6.9,.92-.77,1.42-1.15,1.51-1.15,1.01-.09,1.52,.11,1.52,.62,0,.34-1.04,1.48-3.13,3.44-3.26,3.4-5.22,5.73-5.88,7-.91,1.86-1.07,3.09-.47,3.67,.51,.5,1.82,.62,3.92,.35,2.19-.35,4.88-1.33,8.06-2.91,3.19-1.58,5.49-3.1,6.91-4.55,.92-.93,1.37-1.91,1.37-2.92,0-.08,.04-.13,.13-.13,.67,0,.89,.33,.64,1.01-.33,1.01-1.33,2.24-3,3.69-1.67,1.45-4.11,2.86-7.29,4.23-3.19,1.38-5.67,2.16-7.44,2.34Z"/>
    </g>
  </g>
</svg>