<?xml version="1.0" encoding="UTF-8"?>
<svg id="_Слой_2" data-name="Слой 2" xmlns="http://www.w3.org/2000/svg" viewBox="0 0 391.97 96.65">
  <defs>
    <style>
      .cls-1 {
        fill: #4a494a;
      }
    </style>
  </defs>
  <g id="Layer_1" data-name="Layer 1">
    <g>
      <path class="cls-1" d="M67.9,45.54c.84-.6,1.3-.73,1.39-.39l-.12,.38c-3.18,2.64-10.69,5.78-22.54,9.42l-2.52,.78c-4.52,3.32-8.53,5.61-12.01,6.86-3.49,1.25-7.5,1.81-12.05,1.68-6.32-.11-10.15-.08-11.5,.1-.59,.17-1.3,.64-2.14,1.41-2.76,2.05-4.44,3.11-5.03,3.2-.25,.09-.55,.05-.89-.12-.93-.58-.52-1.51,1.24-2.79,.92-.68,2.01-1.24,3.27-1.67,1.34-.52,2.43-1.16,3.27-1.92,4.43-3.74,8.23-7.53,11.4-11.34l.75-.76c-8.24-7.77-10.04-16.64-5.41-26.62,2.57-5.33,6.71-10.27,12.45-14.83C33.19,4.36,38.83,1.55,44.39,.5c6.64-1.4,12.01,.17,16.09,4.73,4.08,4.56,5.4,10.38,3.94,17.47-2.33,12.91-8.61,23.5-18.81,31.75,.25,0,1.3-.31,3.15-.91,3.19-.87,6.81-2.12,10.84-3.76,4.03-1.63,6.8-3.05,8.3-4.24ZM4,66.05l-.63,.13-.75,.51-1.25,1.02c0,.08,.21,0,.63-.26,.42-.26,.84-.53,1.26-.83,.42-.3,.67-.49,.75-.57Zm31.42-5.83c.33-.17,.69-.36,1.07-.58,.38-.21,.77-.45,1.2-.7,.42-.26,.84-.51,1.26-.77,.42-.26,.82-.51,1.19-.77,.38-.26,.71-.49,1-.7,.29-.21,.48-.4,.56-.57l.25-.13-1.64,.14c-6.14,.98-12.22-.48-18.24-4.39-.09-.17-.8,.43-2.13,1.79-2.34,2.63-4.93,5.14-7.77,7.52l-2.51,2.04c-.08,.09,0,.17,.26,.25,.51,.08,1.77,.11,3.79,.09,8.09-.07,13.35-.41,15.79-1.02,1.77-.44,3.74-1.17,5.92-2.2Zm7.92-5.25c.84-.34,2.89-2.17,6.15-5.49,6.6-6.71,11.16-14.92,13.69-24.63,2.03-8.7,.8-15.25-3.71-19.68-3.57-3.76-8.89-4.89-15.95-3.4-3.78,1.04-7.73,2.97-11.83,5.79-5.86,3.92-10.38,8.35-13.54,13.26-3.16,4.92-4.57,9.92-4.23,15.01,.34,5.1,2.67,9.65,7,13.65,.08,.08,1.61-1.93,4.56-6.04,2.95-4.11,4.68-6.59,5.18-7.44,6.58-9.24,11.16-15.18,13.75-17.81,1.83-2.04,3.59-3.63,5.27-4.78,1.67-1.15,2.81-1.56,3.4-1.23,.34,.25,.3,.5-.12,.76-.08,0-.55,.26-1.38,.77-3.43,2.56-9.44,9.94-18.01,22.14-2.5,3.48-5.79,7.89-9.87,13.23l-1.38,1.78c4.83,3.67,9.78,5.31,14.83,4.93,2.78-.19,4.84-.46,6.19-.81Z"/>
      <path class="cls-1" d="M65.79,50.86c-.34-.42-.35-1.05-.02-1.9,.25-.84,1.08-2.07,2.5-3.69,.75-.85,1.46-1.53,2.13-2.04l1.26-.77c.42,0,.63-.13,.63-.38,0-.08,.21-.13,.63-.13,.59,.17,.93,.37,1.02,.62-.17,.17-.29,.21-.38,.13-.17,.09-.29,.25-.37,.51l-.24,1.14c-.16,1.01,.02,1.77,.53,2.27,2.55,2.25,5.91,1.76,10.1-1.48l.88-.51c.33-.17,.55-.09,.63,.25l-1.51,1.15c-1.34,1.02-2.89,1.75-4.66,2.19-1.77,.44-3.45,.24-5.06-.59-.51-.42-.89-.79-1.15-1.13-.17-.33-.3-.42-.38-.25-.58,1.19-1.37,2.29-2.37,3.31-1.92,1.87-3.31,2.3-4.16,1.3Zm.76-.13c.34,.42,1.3-.18,2.89-1.79,1.17-1.02,2-2.29,2.5-3.81,.16-.51,.25-.89,.24-1.14l-.13-.5-1.25,1.27c-1.5,1.36-2.67,2.68-3.5,3.95-.58,1.1-.83,1.78-.74,2.03Z"/>
      <path class="cls-1" d="M57.65,89.1c-.08,.17-.29,.08-.63-.25l-.38-.12,1.12-1.78,11.96-19.94c10.05-16.26,17.46-27.4,22.21-33.43,.58-.68,1-.98,1.26-.9,.25,0,.38,.04,.38,.12,0,.42-1.49,2.84-4.49,7.24l-3,4.32,.26,.38,.26,.5,2.26-1.28c2.18-1.11,3.78-1.76,4.79-1.94,.84,0,1.35,.24,1.52,.75,.34,.84-.4,2.49-2.23,4.95l-1.63,1.91c3.21,1.24,7.12,.53,11.73-2.12,1.42-.85,2.89-1.83,4.4-2.94,.17-.17,.31-.21,.44-.13,.13,.08,.15,.21,.07,.38l-.63,.64c-1.84,1.45-3.39,2.47-4.65,3.07-4.36,2.31-8.4,2.9-12.12,1.75l-1.13,1.27c-3.01,2.89-5.07,3.37-6.18,1.44-.43-.84-.44-1.93-.03-3.29l.12-.63c-.17,.25-1.17,1.7-3,4.32-4.25,5.93-9.03,13.43-14.34,22.49-4.98,8.21-7.77,12.62-8.35,13.21Zm26.74-35.74c.67,.16,1.47-.14,2.39-.91,.25-.17,.61-.47,1.07-.89,.46-.42,.86-.81,1.19-1.15l.37-.64c-1.1-.58-2.08-1.5-2.93-2.75-.09-.25-.34-.21-.76,.13-.42,.34-.84,.98-1.25,1.91-.91,2.62-.93,4.05-.09,4.3Zm5.65-4.22c.08,0,.31-.21,.69-.64,.38-.42,.81-.96,1.31-1.59,.5-.64,.88-1.16,1.12-1.59,.5-.68,.83-1.27,1-1.78,.16-.42,.2-.67,.12-.76-.25-.25-1.64,.23-4.16,1.43-2.01,1.11-3.02,1.88-3.01,2.3,0,.25,.36,.76,1.09,1.51,.72,.75,1.34,1.13,1.84,1.12Z"/>
      <path class="cls-1" d="M104.46,50.53c-.34-.42-.35-1.05-.02-1.9,.25-.84,1.08-2.07,2.5-3.69,.75-.85,1.46-1.53,2.13-2.04l1.26-.77c.42,0,.63-.13,.63-.38,0-.08,.21-.13,.63-.13,.59,.17,.93,.37,1.02,.62-.17,.17-.29,.21-.38,.13-.17,.09-.29,.25-.37,.51l-.24,1.14c-.16,1.01,.02,1.77,.53,2.27,2.55,2.25,5.91,1.76,10.1-1.48l.88-.51c.33-.17,.55-.09,.63,.25l-1.51,1.15c-1.34,1.02-2.89,1.75-4.66,2.19-1.77,.44-3.45,.24-5.06-.59-.51-.42-.89-.79-1.15-1.13-.17-.33-.3-.42-.38-.25-.58,1.19-1.37,2.29-2.37,3.31-1.92,1.87-3.31,2.3-4.16,1.3Zm.76-.13c.34,.42,1.3-.18,2.89-1.79,1.17-1.02,2-2.29,2.5-3.81,.16-.51,.25-.89,.24-1.14l-.13-.5-1.25,1.27c-1.5,1.36-2.67,2.68-3.5,3.95-.58,1.1-.83,1.78-.74,2.03Z"/>
      <path class="cls-1" d="M139.16,44.17c.33-.09,.55,0,.63,.25l-.5,.51-2.26,1.79-3.27,2.3-3.64,2.43c-.25,.09-.78,.39-1.57,.9-.8,.51-1.45,.9-1.95,1.15-1.34,.77-2.54,1.22-3.59,1.36-1.05,.14-1.83-.03-2.34-.49-.51-.46-.64-1.15-.4-2.08,.24-1.01,.99-2.24,2.24-3.68,1-1.02,2.47-2.25,4.39-3.7,1.42-.94,2.22-1.66,2.38-2.17,.08-.34-.13-.46-.64-.37-1.6,.27-3.4,1.12-5.41,2.57-.08,0-.31,.17-.69,.51-.38,.34-.73,.6-1.07,.77l-.5,.26c-.26-.25-.34-.42-.26-.5,1.25-1.02,2.34-1.83,3.27-2.43,1.34-.94,2.6-1.52,3.78-1.74,1.18-.22,1.94,.05,2.28,.8,.34,.67-.7,1.99-3.12,3.94-3.85,3.07-5.77,5.32-5.76,6.75,0,.51,.18,.84,.51,1.01,.34,.17,.91,.1,1.7-.2,.8-.3,1.49-.6,2.08-.9,.58-.3,1.42-.75,2.51-1.35l2.14-1.28c.84-.51,2.09-1.36,3.77-2.56l3.64-2.68c1-.77,1.55-1.15,1.63-1.15Z"/>
      <path class="cls-1" d="M138.62,54.92c-.01-1.18,.9-3.04,2.73-5.58l.87-1.27-.12,.13c-.08,0-.23,.07-.44,.19-.21,.13-.4,.24-.57,.32-2.52,1.37-4.07,2.06-4.66,2.06-.34,0-.59-.08-.76-.25-.6-.84-.06-2.32,1.6-4.44,1.75-2.46,3.13-3.9,4.13-4.33l.38-.13c.34,0,.59,.25,.76,.75,.17,.25-.41,1.01-1.75,2.29-.67,.6-1.36,1.3-2.07,2.1-.71,.81-1.27,1.49-1.69,2.04-.42,.55-.58,.87-.5,.95,0,.08,.36-.02,1.07-.33,.71-.3,1.55-.71,2.52-1.22,.96-.51,1.78-.98,2.45-1.41,.75-.51,1.72-1.28,2.89-2.3,1.34-1.27,2.13-1.79,2.39-1.54,.26,.34,.3,.67,.14,1.01-.17,.34-.92,1.14-2.25,2.42-3.59,3.66-5.68,6.24-6.25,7.76-.74,1.95,.65,2.14,4.18,.6,4.45-1.97,10.06-5.52,16.84-10.63,.33-.17,.63-.13,.89,.12-2.43,2.04-5.4,4.13-8.92,6.27-4.27,2.82-7.5,4.61-9.68,5.39-2.77,1.12-4.16,.79-4.18-.98Z"/>
      <path class="cls-1" d="M159.83,52.46c2.45,.65,5.39-.05,8.83-2.1,3.44-2.05,5.02-3.92,4.75-5.6,0-.08,.04-.13,.13-.13,.76,0,.85,.58,.27,1.77l-.62,1.02c-3.09,3.56-6.78,5.45-11.07,5.66-3.37,.2-5.19-.8-5.46-2.99-.09-1.01,.27-2.23,1.11-3.67,.83-1.44,2.17-2.59,4.01-3.45,.84-.34,1.49-.41,1.96-.21,.46,.21,.64,.63,.52,1.26-.12,.63-.56,1.25-1.31,1.84-1.17,.85-2.39,1.37-3.65,1.55-.34,0-.63,.22-.88,.64-.5,.85-.62,1.73-.36,2.66,.26,.93,.85,1.51,1.78,1.75Zm-.43-5.81c.59,0,1.43-.35,2.52-1.03,.75-.51,1.25-1.06,1.5-1.66,.08-.25,0-.38-.26-.38l-1.38,.77c-1.68,1.28-2.47,2.04-2.38,2.3Z"/>
      <path class="cls-1" d="M167.21,88.17c-.08,.17-.29,.08-.63-.25l-.38-.12,1.12-1.78,11.96-19.94c10.06-16.26,17.46-27.4,22.21-33.43,.58-.68,1-.98,1.26-.9,.25,0,.38,.04,.38,.12,0,.42-1.49,2.84-4.49,7.24l-3,4.32,.26,.38,.26,.5,2.26-1.28c2.18-1.11,3.78-1.76,4.79-1.94,.84,0,1.35,.24,1.52,.75,.34,.84-.4,2.49-2.23,4.95l-1.63,1.91c3.21,1.24,7.12,.53,11.73-2.12,1.42-.85,2.89-1.83,4.4-2.94,.17-.17,.31-.21,.44-.13,.13,.08,.15,.21,.07,.38l-.63,.64c-1.84,1.45-3.39,2.47-4.65,3.07-4.36,2.31-8.4,2.9-12.12,1.75l-1.13,1.27c-3.01,2.89-5.07,3.37-6.18,1.44-.43-.84-.44-1.93-.03-3.29l.12-.63c-.17,.25-1.17,1.7-3,4.32-4.25,5.93-9.03,13.43-14.34,22.49-4.98,8.21-7.77,12.62-8.35,13.21Zm26.74-35.74c.67,.16,1.47-.14,2.39-.91,.25-.17,.61-.47,1.07-.89,.46-.42,.86-.81,1.19-1.15l.37-.64c-1.1-.58-2.08-1.5-2.93-2.75-.09-.25-.34-.21-.76,.13-.42,.34-.84,.98-1.25,1.91-.91,2.62-.93,4.05-.09,4.3Zm5.65-4.22c.08,0,.31-.21,.69-.64,.38-.42,.81-.96,1.31-1.59,.5-.64,.88-1.16,1.12-1.59,.5-.68,.83-1.27,1-1.78,.16-.42,.2-.67,.12-.76-.25-.25-1.64,.23-4.16,1.43-2.01,1.11-3.02,1.88-3.01,2.3,0,.25,.36,.76,1.09,1.51,.72,.75,1.34,1.13,1.84,1.12Z"/>
      <path class="cls-1" d="M214.02,49.6c-.34-.42-.35-1.05-.02-1.9,.25-.84,1.08-2.07,2.5-3.69,.75-.85,1.46-1.53,2.13-2.04l1.26-.77c.42,0,.63-.13,.63-.38,0-.08,.21-.13,.63-.13,.59,.17,.93,.37,1.02,.62-.17,.17-.29,.21-.38,.13-.17,.09-.29,.25-.37,.51l-.24,1.14c-.16,1.01,.02,1.77,.53,2.27,2.55,2.25,5.91,1.76,10.1-1.48l.88-.51c.33-.17,.55-.09,.63,.25l-1.51,1.15c-1.34,1.02-2.89,1.75-4.66,2.19-1.77,.44-3.45,.24-5.06-.59-.51-.42-.89-.79-1.15-1.13-.17-.33-.3-.42-.38-.25-.58,1.19-1.37,2.29-2.37,3.31-1.92,1.87-3.31,2.3-4.16,1.3Zm.76-.13c.34,.42,1.3-.18,2.89-1.79,1.17-1.02,2-2.29,2.5-3.81,.16-.51,.25-.89,.24-1.14l-.13-.5-1.25,1.27c-1.5,1.36-2.67,2.68-3.5,3.95-.58,1.1-.83,1.78-.74,2.03Z"/>
      <path class="cls-1" d="M194.83,96.65c-2.36,.02-2.55-2.25-.56-6.82l1-1.9c4.31-8.38,10.73-16.48,19.25-24.3,3.43-3.06,8.58-6.56,15.46-10.49,1.09-.6,1.97-1.45,2.63-2.55l1.12-1.78-.5,.38-.25,.26c-1,.94-1.97,1.53-2.89,1.79-.93,.26-1.56,.1-1.9-.49-.68-1.26,.2-3.18,2.67-5.77,2.46-2.59,4.58-3.89,6.35-3.91,.67,0,1.05,.12,1.14,.37,.25,.17,.42,.21,.51,.12l1.75-2.16c1.42-1.86,2.33-2.97,2.75-3.31,.75-.77,1.25-1.15,1.51-1.15l.25,.25c0,.25-.33,.72-1,1.4-1.92,2.38-5.17,6.95-9.74,13.73l-.87,1.27c5.12-2.32,9.65-4.8,13.58-7.45l1.26-.9c.17-.17,.33-.09,.51,.25-.08,.17-.29,.38-.63,.64l-.5,.38c-1.93,1.45-6.87,4.19-14.84,8.22l-1.5,2.04c-6.32,9.32-13.4,18.78-21.24,28.36-7.34,8.99-12.44,13.5-15.3,13.53Zm-.38-.75c1.94,.15,5.33-2.49,10.17-7.92,7.43-8.4,15.34-18.79,23.75-31.17l2.25-3.18c-2.85,1.46-5.54,3.04-8.05,4.74-2.93,1.88-6.24,4.65-9.91,8.3-3.68,3.66-6.64,7.05-8.89,10.19-5.92,7.63-9.19,13.39-9.84,17.27-.24,1.18-.07,1.77,.52,1.76Zm35.12-45.29c.93,0,2.21-.8,3.83-2.37,1.63-1.57,2.9-3.04,3.82-4.39,.58-.85,.87-1.4,.87-1.65,0-.25-.13-.38-.38-.38-1.52,.01-3.7,1.72-6.53,5.11-2.09,2.46-2.62,3.69-1.61,3.68Z"/>
      <path class="cls-1" d="M248.05,53.99c-.01-1.18,.9-3.04,2.73-5.58l.87-1.27-.12,.13c-.08,0-.23,.07-.44,.19-.21,.13-.4,.24-.57,.32-2.52,1.37-4.07,2.06-4.66,2.06-.34,0-.59-.08-.76-.25-.6-.84-.06-2.32,1.6-4.44,1.75-2.46,3.12-3.9,4.13-4.33l.38-.13c.34,0,.59,.25,.76,.75,.17,.25-.41,1.02-1.75,2.29-.67,.6-1.36,1.3-2.07,2.1-.71,.81-1.27,1.49-1.69,2.04-.42,.55-.58,.87-.5,.95,0,.08,.36-.02,1.07-.33,.71-.3,1.55-.71,2.52-1.22,.96-.51,1.78-.98,2.45-1.41,.75-.51,1.72-1.28,2.89-2.3,1.34-1.27,2.13-1.79,2.39-1.54,.26,.34,.3,.67,.14,1.01-.17,.34-.92,1.14-2.25,2.42-3.59,3.66-5.68,6.24-6.25,7.76-.74,1.95,.65,2.14,4.18,.6,4.45-1.97,10.06-5.52,16.84-10.63,.33-.17,.63-.13,.89,.12-2.43,2.04-5.4,4.13-8.92,6.27-4.27,2.82-7.5,4.61-9.69,5.39-2.77,1.12-4.16,.79-4.18-.98Z"/>
      <path class="cls-1" d="M285.31,51.65c1.35,.24,5.42-2.32,12.19-7.69,.92-.77,1.59-1.23,2.01-1.41,.17-.08,.29-.07,.38,.06,.08,.13,.08,.23,0,.32-.17,.17-.88,.77-2.13,1.79-.67,.51-1.49,1.13-2.45,1.85-.96,.72-1.72,1.3-2.26,1.73-.55,.43-1.17,.89-1.88,1.41-.71,.51-1.28,.9-1.7,1.15s-.9,.54-1.45,.83c-.55,.3-.99,.47-1.32,.52-.34,.05-.72,.09-1.14,.14-.42,.05-.78-.01-1.08-.18-.3-.17-.62-.42-.95-.75-.85-.83-1.12-2.26-.79-4.29,.08-.25,.2-.63,.37-1.14,.16-.51,.27-.87,.31-1.08,.04-.21,.02-.4-.07-.57-.67,.51-1.34,1.07-2.01,1.66-2.59,2.21-3.89,3.7-3.88,4.46,0,.17-.08,.25-.25,.25-.51,0-.68-.2-.51-.63,.16-.51,1.24-2.33,3.24-5.46,1.83-2.88,2.82-4.62,2.99-5.21,.08-.42,.04-.67-.13-.76-.17-.08-.55-.04-1.14,.14-3.2,.7-6.97,2.88-11.32,6.54-.42,.34-1.03,.92-1.82,1.72-.79,.81-1.5,1.53-2.13,2.17-.63,.64-.94,1-.94,1.08l-.12,.25c-.08,.09-.23,.07-.44-.06-.21-.12-.32-.23-.32-.31,0-.51,1.37-2.41,4.12-5.72,1-1.19,1.83-2.12,2.5-2.8,.83-.85,1.42-1.19,1.76-1.03,.08,.08,.13,.21,.13,.38,0,.42-.54,1.18-1.62,2.29l-.25,.25c.17-.08,.58-.38,1.25-.9,3.68-3.06,6.87-4.61,9.57-4.63,.76,0,1.35,.14,1.77,.43,.42,.29,.59,.73,.52,1.32-.08,.68-.7,1.82-1.87,3.43-.42,.51-.79,1.02-1.12,1.53l-.12,.13c.17-.08,.29-.17,.38-.26,.84-.6,1.42-.9,1.76-.9,.25,0,.44,.04,.57,.12,.13,.08,.19,.21,.19,.38,0,.17,0,.32,0,.44,0,.13-.06,.34-.18,.63-.12,.3-.18,.53-.18,.7-.81,3.54-.29,5.44,1.57,5.67Z"/>
      <path class="cls-1" d="M295.66,49.79c-1.1-1.08-1.03-2.52,.22-4.3,.91-1.61,2.25-2.8,4.01-3.57,1.01-.43,1.72-.44,2.15-.02,.34,.25,.4,.67,.2,1.26-.21,.59-.6,1.1-1.19,1.53-1.17,.85-2.39,1.37-3.65,1.55-.34,0-.63,.22-.88,.64-1,1.78-.53,2.79,1.42,3.02,3.79-.03,8.49-2.05,14.1-6.06l1.51-1.02c.08-.08,.21-.08,.38,0,.17,.08,.21,.21,.13,.38-3.1,2.55-6.62,4.61-10.56,6.16-3.95,1.55-6.56,1.7-7.83,.45Zm1.86-4.31c.59,0,1.43-.35,2.52-1.03,.75-.51,1.25-1.06,1.5-1.66,.08-.25,0-.38-.26-.38l-1.38,.77c-1.68,1.28-2.47,2.04-2.38,2.29Z"/>
      <path class="cls-1" d="M318.81,52.75c-.42-.16-.72-.37-.89-.62-.17-.25-.26-.76-.27-1.51,.15-1.69,1.61-4.14,4.36-7.37l1-1.14-.75,.64c-1.34,1.02-3.35,2.39-6.03,4.1-2.6,1.46-4.2,1.85-4.79,1.18-.68-.83-.52-1.97,.48-3.42,1.75-2.37,2.76-2.97,3.02-1.79,.09,.34-.25,.89-1,1.65-.33,.34-.67,.76-1,1.27-.33,.51-.58,.93-.75,1.27-.17,.34-.21,.55-.12,.63,.34,.33,1.72-.22,4.16-1.68,3.6-2.05,6.7-4.35,9.29-6.9,.92-.77,1.42-1.15,1.51-1.15,1.01-.09,1.52,.11,1.52,.62,0,.34-1.04,1.48-3.13,3.44-3.01,3.14-4.97,5.48-5.88,7-1.16,1.95-1.32,3-.48,3.16,.93,.16,2.12-.15,3.59-.92,1.47-.77,4-2.39,7.6-4.87,.25-.17,.65-.45,1.19-.83,.54-.38,1.02-.72,1.45-1.02,.42-.3,.79-.58,1.13-.83l1.63-1.15c.17-.08,.31-.07,.44,.06,.13,.12,.11,.27-.06,.44l-.63,.51-1.88,1.41c-6.95,4.86-11.27,7.47-12.95,7.82-1.01,.18-1.6,.18-1.77,.01Z"/>
      <path class="cls-1" d="M335.49,53.24c-.01-1.18,.9-3.04,2.73-5.58l.87-1.27-.12,.13c-.08,0-.23,.07-.44,.19-.21,.13-.4,.24-.57,.32-2.52,1.37-4.07,2.06-4.66,2.06-.34,0-.59-.08-.76-.25-.6-.84-.06-2.32,1.6-4.44,1.75-2.46,3.13-3.9,4.13-4.33l.38-.13c.34,0,.59,.25,.76,.75,.17,.25-.41,1.02-1.75,2.29-.67,.6-1.36,1.3-2.07,2.1-.71,.81-1.27,1.49-1.69,2.04-.42,.55-.58,.87-.5,.95,0,.08,.36-.02,1.07-.32,.71-.3,1.55-.71,2.52-1.22,.96-.51,1.78-.98,2.45-1.41,.75-.51,1.72-1.28,2.89-2.3,1.34-1.28,2.13-1.79,2.39-1.54,.26,.33,.3,.67,.14,1.01-.17,.34-.92,1.14-2.25,2.42-3.59,3.66-5.68,6.24-6.25,7.76-.74,1.95,.65,2.14,4.18,.6,4.45-1.97,10.06-5.52,16.84-10.63,.33-.17,.63-.13,.89,.12-2.43,2.04-5.4,4.13-8.92,6.27-4.27,2.82-7.5,4.61-9.68,5.39-2.77,1.12-4.16,.79-4.18-.98Z"/>
      <path class="cls-1" d="M359.75,53.03c-.68-.33-.72-.71-.14-1.14,.5-.43,.92-.39,1.26,.12,.17,.34,.11,.63-.18,.89-.29,.26-.61,.3-.95,.13Zm4.24-7.11c-.17-.08-.17-.5-.01-1.26,.49-1.94,2.04-4.82,4.67-8.63,2.62-3.81,6.93-9.71,12.93-17.68,5-6.61,8.13-10.22,9.39-10.82,.17-.08,.42-.13,.76-.13,.17,0,.25,.08,.26,.25,0,.34-1.46,2.25-4.38,5.72-6.17,7.55-11.21,14.08-15.12,19.59-3.83,5.43-6.32,9.62-7.48,12.58-.17,.51-.5,.64-1.01,.39Z"/>
    </g>
  </g>
</svg>