<?xml version="1.0" encoding="UTF-8"?>
<svg id="_Слой_2" data-name="Слой 2" xmlns="http://www.w3.org/2000/svg" viewBox="0 0 458.91 166.99">
  <defs>
    <style>
      .cls-1 {
        fill: #010101;
      }
    </style>
  </defs>
  <g id="Layer_1" data-name="Layer 1">
    <g>
      <g>
        <path class="cls-1" d="M14.92,84.82c-3.59,0-6.45-.37-8.57-1.1-4.02-1.57-6.13-4.04-6.35-7.4,0-1.68,.42-3.41,1.27-5.19,1.69-3.25,4.74-6.16,9.12-8.73,4.39-2.57,9.28-4.27,14.68-5.11,1.48-.21,2.27-.37,2.38-.47l3.97-5.19C47.71,30.75,60.45,15.96,69.66,7.25c2.75-2.73,4.34-4.04,4.76-3.93,.74,0,1.11,.37,1.11,1.1,0,.11-.53,.79-1.59,2.05l-10.31,11.17-.63,.47,.63-.16,6.82-3.15c8.57-4.72,13.27-8.71,14.12-11.96,.1-.42,0-.79-.32-1.1-.21-.31-.95-.47-2.22-.47-3.07-.21-7.04,.84-11.9,3.15-3.6,1.57-6.35,3.3-8.25,5.19l-1.43,1.1c-.21-.31,.24-1.02,1.35-2.12s2.51-2.18,4.21-3.23c4.12-2.52,8.25-4.19,12.38-5.04,2.43-.52,4.28-.42,5.55,.31,1.16,.53,1.75,1.31,1.75,2.36-.21,3.25-4.34,7.13-12.38,11.64-2.65,1.47-5.93,3.1-9.84,4.88l-1.43,.47,.79,.16c6.45,1.26,10.37,4.15,11.74,8.65,.32,.94,.42,2.47,.32,4.56,0,2.1-.26,3.93-.79,5.51-.42,1.36-1.01,3.04-1.75,5.04-1.59,3.67-3.55,7.24-5.87,10.7l-1.43,2.2c.21,.11,.82,.13,1.82,.08,1-.05,2.3-.21,3.89-.47,1.59-.26,2.86-.5,3.81-.71,3.07-.73,5.71-1.99,7.93-3.78,.42-.31,.79-.47,1.11-.47,.53,0,.58,.21,.16,.63-2.86,2.1-5.13,3.41-6.82,3.93-3.49,1.05-7.14,1.73-10.95,2.04-1.38,.11-2.28,.47-2.7,1.1-.11,.11-.26,.31-.48,.63-10.05,12.59-22.64,20.51-37.76,23.76-3.91,.84-7.3,1.26-10.15,1.26Zm-9.2-2.36c4.76,1.99,11.32,1.94,19.67-.16,11.21-2.83,21.16-8.39,29.83-16.68,4.44-4.41,6.56-6.77,6.35-7.08l-3.01,.16c-2.75,0-5.55-.1-8.41-.31-12.69-.94-19.46-1.1-20.31-.47-.11,.11-.61,.74-1.51,1.89-.9,1.16-1.98,2.57-3.25,4.25-1.27,1.68-2.33,3.1-3.17,4.25-4.02,5.46-6.51,8.92-7.46,10.39-.42,.94-.9,1.16-1.43,.63-.63-.84,.95-4.04,4.76-9.6l5.71-7.71,2.54-3.62-2.06,.31c-3.81,.74-7.48,2.04-11.03,3.93-3.54,1.89-6.32,3.99-8.33,6.29-3.81,4.51-4.6,8.18-2.38,11.01,.74,1.16,1.9,1.99,3.49,2.52Zm54.9-25.18c1.16-.1,1.9-.26,2.22-.47,.32-.21,1-1.1,2.06-2.67,6.77-10.28,9.73-18.41,8.89-24.39-.74-4.51-4.02-7.29-9.84-8.34-.85-.42-1.67-.52-2.46-.31-.79,.21-1.32,.45-1.59,.71-.26,.26-1.09,1.18-2.46,2.75l-12.06,14.32c-9.63,11.75-14.44,17.68-14.44,17.78l3.01-.16c3.59,0,6.93,.11,10,.31,8.46,.42,14.02,.58,16.66,.47Z"/>
        <path class="cls-1" d="M84.25,62.95c-.74-.42-1.11-1.2-1.11-2.36s.21-2.25,.63-3.3l.32-.79-.95,.47c-.53,.42-1.01,.74-1.43,.94-.21,.11-.58,.31-1.11,.63-.53,.31-.95,.58-1.27,.79-.74,.42-1.4,.39-1.98-.08-.58-.47-.71-1.18-.4-2.12,.42-1.05,1.56-2.31,3.41-3.78,1.85-1.47,3.52-2.41,5-2.83,1.27-.31,2.17-.05,2.7,.79,.21,.31,.37,.42,.48,.31,.53-.21,.9-.1,1.11,.31l-.16,.16c-.11,.21-.21,.39-.32,.55-.11,.16-.21,.34-.32,.55-2.12,2.1-3.49,3.99-4.12,5.67-.53,1.68-.48,2.78,.16,3.3,.95,.63,3.12,.26,6.51-1.1,3.49-1.36,7.83-3.99,13.01-7.87,1.8-1.36,2.64-1.73,2.54-1.1-.11,.42-1.56,1.63-4.36,3.62-2.8,1.99-5.26,3.57-7.38,4.72-1.38,.74-2.75,1.36-4.12,1.89-1.38,.53-2.67,.87-3.89,1.02-1.22,.16-2.2,.03-2.94-.39Zm-4.28-6.14c-.53,.63-.74,.94-.63,.94s1-.47,2.7-1.42c3.59-1.99,5.39-3.51,5.39-4.56-.21-.63-1.06-.42-2.54,.63-1.8,1.16-3.44,2.62-4.92,4.41Z"/>
        <path class="cls-1" d="M112.65,64.37c-.53-.21-.9-.47-1.11-.79-.21-.32-.32-.94-.32-1.89,.21-2.1,2.06-5.14,5.55-9.13l1.27-1.42-.95,.79c-1.69,1.26-4.23,2.94-7.62,5.04-3.28,1.79-5.29,2.26-6.03,1.42-.85-1.05-.63-2.46,.63-4.25,2.22-2.94,3.49-3.67,3.81-2.2,.1,.42-.32,1.1-1.27,2.05-.42,.42-.85,.94-1.27,1.57-.42,.63-.74,1.16-.95,1.57-.21,.42-.26,.68-.16,.79,.42,.42,2.17-.26,5.24-2.04,4.55-2.52,8.46-5.35,11.74-8.5,1.16-.94,1.8-1.42,1.9-1.42,1.27-.1,1.9,.16,1.9,.79,0,.42-1.32,1.84-3.97,4.25-3.81,3.88-6.29,6.77-7.46,8.65-1.48,2.41-1.69,3.72-.63,3.93,1.16,.21,2.67-.16,4.52-1.1,1.85-.94,5.05-2.94,9.6-5.98,.32-.21,.82-.55,1.51-1.02,.69-.47,1.29-.89,1.83-1.26,.53-.37,1-.71,1.43-1.02l2.06-1.42c.21-.1,.4-.08,.56,.08,.16,.16,.13,.34-.08,.55l-.79,.63-2.38,1.73c-8.78,5.98-14.23,9.18-16.34,9.6-1.27,.21-2.01,.21-2.22,0Z"/>
        <path class="cls-1" d="M129.63,60.43c-1.38-1.36-1.27-3.15,.32-5.35,1.16-1.99,2.86-3.46,5.08-4.41,1.27-.52,2.17-.52,2.7,0,.42,.31,.5,.84,.24,1.57-.27,.74-.77,1.36-1.51,1.89-1.48,1.05-3.01,1.68-4.6,1.89-.42,0-.79,.26-1.11,.79-1.27,2.2-.69,3.46,1.75,3.78,4.76,0,10.68-2.46,17.77-7.4l1.9-1.26c.1-.1,.26-.1,.48,0,.21,.11,.26,.26,.16,.47-3.92,3.15-8.36,5.66-13.33,7.55-4.97,1.89-8.25,2.04-9.84,.47Zm2.38-5.35c.74,0,1.8-.42,3.17-1.26,.95-.63,1.59-1.31,1.9-2.05,.1-.31,0-.47-.32-.47l-1.75,.94c-2.12,1.57-3.12,2.52-3.01,2.83Z"/>
        <path class="cls-1" d="M118.52,106.85c-.1,.21-.37,.1-.79-.31l-.48-.16,1.43-2.2,15.23-24.7c12.8-20.14,22.21-33.93,28.24-41.38,.74-.84,1.27-1.21,1.59-1.1,.32,0,.48,.05,.48,.16,0,.53-1.9,3.52-5.71,8.97l-3.81,5.35,.32,.47,.32,.63,2.86-1.57c2.75-1.36,4.76-2.15,6.03-2.36,1.06,0,1.69,.31,1.9,.94,.42,1.05-.53,3.09-2.86,6.14l-2.06,2.36c4.02,1.57,8.94,.74,14.76-2.52,1.8-1.05,3.65-2.25,5.55-3.62,.21-.21,.4-.26,.56-.16,.16,.11,.18,.26,.08,.47l-.79,.79c-2.33,1.79-4.28,3.04-5.87,3.78-5.5,2.83-10.58,3.52-15.23,2.05l-1.43,1.57c-3.81,3.57-6.4,4.15-7.78,1.73-.53-1.05-.53-2.41,0-4.09l.16-.79c-.21,.31-1.48,2.1-3.81,5.35-5.39,7.34-11.48,16.63-18.25,27.85-6.35,10.17-9.89,15.63-10.63,16.36Zm33.96-44.21c.84,.21,1.85-.16,3.01-1.1,.32-.21,.77-.58,1.35-1.1,.58-.52,1.08-1,1.51-1.42l.48-.79c-1.38-.73-2.59-1.89-3.65-3.46-.11-.32-.42-.26-.95,.16-.53,.42-1.06,1.21-1.59,2.36-1.17,3.25-1.22,5.04-.16,5.35Zm7.14-5.19c.1,0,.4-.26,.87-.79,.48-.52,1.03-1.18,1.67-1.97,.63-.79,1.11-1.44,1.43-1.97,.63-.84,1.06-1.57,1.27-2.2,.21-.52,.26-.84,.16-.94-.32-.32-2.06,.26-5.24,1.73-2.54,1.36-3.81,2.31-3.81,2.83,0,.31,.45,.94,1.35,1.89,.9,.94,1.67,1.42,2.3,1.42Z"/>
        <path class="cls-1" d="M181.35,65.15c0-1.47,1.16-3.78,3.49-6.92l1.11-1.57-.16,.16c-.11,0-.29,.08-.56,.24-.26,.16-.5,.29-.71,.39-3.17,1.68-5.13,2.52-5.87,2.52-.42,0-.74-.1-.95-.31-.74-1.05-.05-2.88,2.06-5.51,2.22-3.04,3.97-4.82,5.24-5.35l.48-.16c.42,0,.74,.31,.95,.94,.21,.31-.53,1.26-2.22,2.83-.85,.74-1.72,1.6-2.62,2.6-.9,1-1.61,1.84-2.14,2.52-.53,.68-.74,1.08-.63,1.18,0,.11,.45-.02,1.35-.39,.9-.37,1.96-.87,3.17-1.5,1.21-.63,2.25-1.2,3.09-1.73,.95-.63,2.17-1.57,3.65-2.83,1.69-1.57,2.7-2.2,3.01-1.89,.32,.42,.37,.84,.16,1.26-.21,.42-1.17,1.42-2.86,2.99-4.55,4.51-7.19,7.71-7.93,9.6-.95,2.41,.79,2.67,5.24,.79,5.61-2.41,12.69-6.77,21.26-13.06,.42-.21,.79-.16,1.11,.16-3.07,2.52-6.82,5.09-11.27,7.71-5.39,3.46-9.47,5.66-12.22,6.61-3.49,1.36-5.24,.94-5.24-1.26Z"/>
        <path class="cls-1" d="M212.45,64.21c-.42-.42-.58-.89-.48-1.42,.21-2.31,2.59-5.72,7.14-10.23l.95-1.1h-.32c-.63,.31-1.01,.53-1.11,.63-5.61,4.62-9.42,6.66-11.42,6.14-1.48-.52-1.69-1.68-.63-3.46,.63-.84,1.11-1.42,1.43-1.73l.48-.47c1.06-1.05,1.69-1.26,1.9-.63,.1,.21-.37,1-1.43,2.36-1.38,1.57-1.9,2.52-1.59,2.83,.21,.21,1.21-.16,3.02-1.1,2.11-.94,4.12-2.2,6.03-3.78l1.27-.94-.63-.79c-1.59-1.47-1.06-3.51,1.59-6.14,3.07-2.83,4.97-3.36,5.71-1.57,.32,.74,.1,1.79-.63,3.15-.32,.63-1.17,1.89-2.54,3.78l-.48,.47,.48-.16c.21-.21,.61-.31,1.19-.31s.98,.11,1.19,.31c.21,.31-.58,1.31-2.38,2.99-4.12,4.09-6.77,7.29-7.93,9.6l-.48,.94,.63,.16c.32,0,1.27-.26,2.86-.79,.74-.31,2.12-1.1,4.13-2.36,2.86-1.78,6.93-4.56,12.22-8.34,.42-.32,.95-.47,1.59-.47l.16,.16-.63,.63-11.74,8.18c-1.9,1.26-3.39,2.15-4.44,2.68-2.65,1.36-4.34,1.63-5.08,.79Zm5.24-13.85c.53,.21,1.32-.31,2.38-1.57,2.33-2.52,3.49-4.35,3.49-5.51,0-.21-.37-.21-1.11,0-1.59,.84-2.96,2.1-4.13,3.78-1.17,1.68-1.38,2.78-.63,3.3Z"/>
        <path class="cls-1" d="M255.29,65.15c0-1.47,1.16-3.78,3.49-6.92l1.11-1.57-.16,.16c-.11,0-.29,.08-.56,.24-.26,.16-.5,.29-.71,.39-3.17,1.68-5.13,2.52-5.87,2.52-.42,0-.74-.1-.95-.31-.74-1.05-.05-2.88,2.06-5.51,2.22-3.04,3.97-4.82,5.24-5.35l.48-.16c.42,0,.74,.31,.95,.94,.21,.31-.53,1.26-2.22,2.83-.85,.74-1.72,1.6-2.62,2.6-.9,1-1.61,1.84-2.14,2.52-.53,.68-.74,1.08-.63,1.18,0,.11,.45-.02,1.35-.39,.9-.37,1.96-.87,3.17-1.5,1.21-.63,2.25-1.2,3.09-1.73,.95-.63,2.17-1.57,3.65-2.83,1.69-1.57,2.7-2.2,3.01-1.89,.32,.42,.37,.84,.16,1.26-.21,.42-1.17,1.42-2.86,2.99-4.55,4.51-7.19,7.71-7.93,9.6-.95,2.41,.79,2.67,5.24,.79,5.61-2.41,12.69-6.77,21.26-13.06,.42-.21,.79-.16,1.11,.16-3.07,2.52-6.82,5.09-11.27,7.71-5.39,3.46-9.47,5.66-12.22,6.61-3.49,1.36-5.24,.94-5.24-1.26Z"/>
      </g>
      <g>
        <path class="cls-1" d="M327.67,138.46c1.06-.73,1.64-.89,1.75-.47l-.16,.47c-4.02,3.25-13.49,7.08-28.4,11.49l-3.17,.94c-5.71,4.09-10.76,6.9-15.15,8.42-4.39,1.52-9.44,2.18-15.15,1.97-7.93-.21-12.75-.21-14.44,0-.74,.21-1.64,.79-2.7,1.73-3.49,2.52-5.61,3.83-6.35,3.93-.32,.11-.69,.05-1.11-.16-1.17-.73-.63-1.89,1.59-3.46,1.16-.84,2.54-1.52,4.12-2.05,1.69-.63,3.07-1.42,4.12-2.36,5.61-4.61,10.42-9.28,14.44-14l.95-.94c-10.26-9.75-12.43-20.82-6.51-33.2,3.28-6.61,8.54-12.72,15.79-18.33,7.24-5.61,14.36-9.05,21.34-10.31,8.36-1.68,15.07,.34,20.15,6.06,5.08,5.72,6.66,12.98,4.76,21.79-3.07,16.05-11.05,29.16-23.96,39.34,.32,0,1.64-.37,3.97-1.1,4.02-1.05,8.57-2.57,13.65-4.56,5.08-1.99,8.57-3.72,10.47-5.19Zm-80.45,24.86l-.79,.16-.95,.63-1.59,1.26c0,.11,.26,0,.79-.31,.53-.31,1.06-.65,1.59-1.02,.53-.37,.85-.6,.95-.71Zm39.51-6.92c.42-.21,.87-.44,1.35-.71,.48-.26,.98-.55,1.51-.87,.53-.31,1.06-.63,1.59-.94,.53-.31,1.03-.63,1.51-.94,.48-.32,.9-.6,1.27-.87,.37-.26,.61-.5,.71-.71l.32-.16-2.06,.16c-7.72,1.16-15.34-.73-22.85-5.66-.11-.21-1.01,.53-2.7,2.2-2.96,3.25-6.24,6.35-9.84,9.28l-3.17,2.52c-.11,.11,0,.21,.32,.31,.63,.11,2.22,.16,4.76,.16,10.16,0,16.76-.37,19.83-1.1,2.22-.52,4.71-1.42,7.46-2.67Zm10-6.45c1.06-.42,3.65-2.67,7.78-6.77,8.35-8.29,14.17-18.46,17.45-30.53,2.64-10.8,1.16-18.99-4.44-24.55-4.44-4.72-11.11-6.19-19.99-4.41-4.76,1.26-9.73,3.62-14.92,7.08-7.41,4.83-13.12,10.28-17.14,16.36-4.02,6.08-5.85,12.3-5.47,18.65,.37,6.35,3.25,12.04,8.65,17.07,.1,.11,2.04-2.38,5.79-7.47,3.75-5.09,5.95-8.16,6.58-9.21,8.35-11.43,14.17-18.78,17.45-22.03,2.33-2.52,4.55-4.48,6.66-5.9,2.11-1.42,3.54-1.91,4.28-1.5,.42,.31,.37,.63-.16,.94-.11,0-.69,.31-1.75,.94-4.34,3.15-11.96,12.27-22.85,27.38-3.17,4.3-7.35,9.76-12.54,16.36l-1.75,2.2c6.03,4.62,12.22,6.71,18.56,6.29,3.49-.21,6.08-.52,7.77-.94Z"/>
        <path class="cls-1" d="M330.52,148.69c-.74-.42-1.11-1.2-1.11-2.36s.21-2.25,.63-3.3l.32-.79-.95,.47c-.53,.42-1.01,.74-1.43,.94-.21,.11-.58,.31-1.11,.63-.53,.31-.95,.58-1.27,.79-.74,.42-1.4,.39-1.98-.08-.58-.47-.71-1.18-.4-2.12,.42-1.05,1.56-2.31,3.41-3.78,1.85-1.47,3.52-2.41,5-2.83,1.27-.31,2.17-.05,2.7,.79,.21,.31,.37,.42,.48,.31,.53-.21,.9-.1,1.11,.31l-.16,.16c-.11,.21-.21,.39-.32,.55-.11,.16-.21,.34-.32,.55-2.12,2.1-3.49,3.99-4.12,5.67-.53,1.68-.48,2.78,.16,3.3,.95,.63,3.12,.26,6.51-1.1,3.49-1.36,7.83-3.99,13.01-7.87,1.8-1.36,2.64-1.73,2.54-1.1-.11,.42-1.56,1.63-4.36,3.62-2.8,1.99-5.26,3.57-7.38,4.72-1.38,.74-2.75,1.36-4.12,1.89-1.38,.53-2.67,.87-3.89,1.02-1.22,.16-2.2,.03-2.94-.39Zm-4.28-6.14c-.53,.63-.74,.94-.63,.94s1-.47,2.7-1.42c3.59-1.99,5.39-3.51,5.39-4.56-.21-.63-1.06-.42-2.54,.63-1.8,1.16-3.44,2.62-4.92,4.41Z"/>
        <path class="cls-1" d="M359.4,148.21c-2.54,.74-4.23,.42-5.08-.94-.63-1.26,0-3.15,1.9-5.66,.63-.84,.9-1.26,.79-1.26-.42,.21-1.27,.31-2.54,.31l-2.22,.16-2.38,2.52c-2.22,2.52-3.28,3.99-3.17,4.41,.11,.32,0,.47-.32,.47l-.32-.31c-.21-.1-.37-.21-.48-.32-.21-.31-.26-.73-.16-1.26l1.11-2.04c.63-.84,2.25-2.65,4.84-5.43,2.59-2.78,4.31-4.59,5.16-5.43,1.16-.94,1.9-1.26,2.22-.94,.74,.53-.37,2.31-3.33,5.35l-2.54,2.36,1.75-.16c2.01-.1,3.44-.52,4.28-1.26,2.22-2.1,3.65-2.83,4.28-2.2,.53,.42,.26,1.05-.79,1.89-1.17,.94-2.46,2.18-3.89,3.7-1.43,1.52-2.36,2.65-2.78,3.38-.53,1.57-.19,2.36,1.03,2.36s2.56-.37,4.05-1.1c2.75-1.05,6.82-3.46,12.22-7.24l3.01-2.05c.21-.1,.37-.1,.48,0,.1,.11,.1,.26,0,.47-.32,.42-2.86,2.26-7.62,5.51-3.7,2.62-6.88,4.2-9.52,4.72Z"/>
        <path class="cls-1" d="M375.59,150.89c0-1.47,1.16-3.78,3.49-6.92l1.11-1.57-.16,.16c-.11,0-.29,.08-.56,.24-.26,.16-.5,.29-.71,.39-3.17,1.68-5.13,2.52-5.87,2.52-.42,0-.74-.1-.95-.31-.74-1.05-.05-2.88,2.06-5.51,2.22-3.04,3.97-4.82,5.24-5.35l.48-.16c.42,0,.74,.31,.95,.94,.21,.31-.53,1.26-2.22,2.83-.85,.74-1.72,1.6-2.62,2.6-.9,1-1.61,1.84-2.14,2.52-.53,.68-.74,1.08-.63,1.18,0,.11,.45-.02,1.35-.39,.9-.37,1.96-.87,3.17-1.5,1.21-.63,2.25-1.2,3.09-1.73,.95-.63,2.17-1.57,3.65-2.83,1.69-1.57,2.7-2.2,3.01-1.89,.32,.42,.37,.84,.16,1.26-.21,.42-1.17,1.42-2.86,2.99-4.55,4.51-7.19,7.71-7.93,9.6-.95,2.41,.79,2.67,5.24,.79,5.61-2.41,12.69-6.77,21.26-13.06,.42-.21,.79-.16,1.11,.16-3.07,2.52-6.82,5.09-11.27,7.71-5.39,3.46-9.47,5.66-12.22,6.61-3.49,1.36-5.24,.94-5.24-1.26Z"/>
        <path class="cls-1" d="M403.03,150.89c0-1.47,1.16-3.78,3.49-6.92l1.11-1.57-.16,.16c-.11,0-.29,.08-.56,.24-.26,.16-.5,.29-.71,.39-3.17,1.68-5.13,2.52-5.87,2.52-.42,0-.74-.1-.95-.31-.74-1.05-.05-2.88,2.06-5.51,2.22-3.04,3.97-4.82,5.24-5.35l.48-.16c.42,0,.74,.31,.95,.94,.21,.31-.53,1.26-2.22,2.83-.85,.74-1.72,1.6-2.62,2.6-.9,1-1.61,1.84-2.14,2.52-.53,.68-.74,1.08-.63,1.18,0,.11,.45-.02,1.35-.39,.9-.37,1.96-.87,3.17-1.5,1.21-.63,2.25-1.2,3.09-1.73,.95-.63,2.17-1.57,3.65-2.83,1.69-1.57,2.7-2.2,3.01-1.89,.32,.42,.37,.84,.16,1.26-.21,.42-1.17,1.42-2.86,2.99-4.55,4.51-7.19,7.71-7.93,9.6-.95,2.41,.79,2.67,5.24,.79,5.61-2.41,12.69-6.77,21.26-13.06,.42-.21,.79-.16,1.11,.16-3.07,2.52-6.82,5.09-11.27,7.71-5.39,3.46-9.47,5.66-12.22,6.61-3.49,1.36-5.24,.94-5.24-1.26Z"/>
        <path class="cls-1" d="M436.99,150.1c-.53-.21-.9-.47-1.11-.79-.21-.32-.32-.94-.32-1.89,.21-2.1,2.06-5.14,5.55-9.13l1.27-1.42-.95,.79c-1.69,1.26-4.23,2.94-7.62,5.04-3.28,1.79-5.29,2.26-6.03,1.42-.85-1.05-.63-2.46,.63-4.25,2.22-2.94,3.49-3.67,3.81-2.2,.1,.42-.32,1.1-1.27,2.05-.42,.42-.85,.94-1.27,1.57-.42,.63-.74,1.16-.95,1.57-.21,.42-.26,.68-.16,.79,.42,.42,2.17-.26,5.24-2.04,4.55-2.52,8.46-5.35,11.74-8.5,1.16-.94,1.8-1.42,1.9-1.42,1.27-.1,1.9,.16,1.9,.79,0,.42-1.32,1.84-3.97,4.25-3.81,3.88-6.29,6.77-7.46,8.65-1.48,2.41-1.69,3.72-.63,3.93,1.16,.21,2.67-.16,4.52-1.1,1.85-.94,5.05-2.94,9.6-5.98,.32-.21,.82-.55,1.51-1.02,.69-.47,1.29-.89,1.83-1.26,.53-.37,1-.71,1.43-1.02l2.06-1.42c.21-.1,.4-.08,.56,.08,.16,.16,.13,.34-.08,.55l-.79,.63-2.38,1.73c-8.78,5.98-14.23,9.18-16.34,9.6-1.27,.21-2.01,.21-2.22,0Z"/>
      </g>
    </g>
  </g>
</svg>